<svg width="311" height="325" viewBox="0 0 311 325" fill="none" xmlns="http://www.w3.org/2000/svg">
<g clip-path="url(#clip0_1_2105)">
<rect width="327" height="327" transform="translate(-13 -2)" fill="#F4C856"/>
<path d="M228.042 288.897L218.915 289.084L214.282 289.168C212.731 289.168 211.172 289.168 209.621 289.203H209.315V288.897L209.273 281.112V280.757H209.621L218.832 280.799C221.906 280.799 224.974 280.875 228.042 280.91H228.237V281.098C228.237 282.413 228.174 283.728 228.14 285.029L228.042 288.897ZM228.042 288.897L227.945 284.959C227.945 283.665 227.868 282.385 227.854 281.112L228.042 281.3C224.974 281.335 221.906 281.411 218.832 281.411L209.621 281.46L209.969 281.112L209.934 288.897L209.621 288.583C211.137 288.583 212.654 288.583 214.178 288.618L218.755 288.702L228.042 288.897Z" fill="#EBEBEB"/>
<path d="M142.301 161.833L133.173 162.02L128.54 162.104C126.989 162.104 125.431 162.104 123.879 162.104H123.573V161.798L123.538 154.013V153.658H123.886L133.097 153.7C136.165 153.7 139.24 153.777 142.308 153.811H142.502V153.999C142.502 155.314 142.447 156.629 142.412 157.93L142.301 161.833ZM142.301 161.833L142.203 157.895C142.168 156.601 142.127 155.321 142.113 154.048L142.301 154.236C139.233 154.236 136.158 154.347 133.09 154.347L123.879 154.396L124.227 154.048V161.833L123.914 161.52C125.431 161.52 126.947 161.52 128.471 161.561L133.027 161.652L142.301 161.833Z" fill="#EBEBEB"/>
<path d="M119.42 207.545H65.1992V273.321H119.42V207.545Z" fill="#EBEBEB"/>
<path d="M113.221 213.542H71.3908V267.31H113.221V213.542Z" fill="white"/>
<path d="M73.0256 213.542H71.3908V267.31H73.0256V213.542Z" fill="#C7C7C7"/>
<path d="M121.055 207.545H119.42V273.321H121.055V207.545Z" fill="#C7C7C7"/>
<path d="M95.2738 225.98H85.4092V255.365H95.2738V225.98Z" fill="#EBEBEB"/>
<path d="M107.753 235.706H80.7615V220.61H107.753V235.706ZM81.4571 235.01H107.058V221.305H81.4571V235.01Z" fill="#EBEBEB"/>
<path d="M96.9918 126.792H95.357V192.567H96.9918V126.792Z" fill="#C7C7C7"/>
<path d="M201.683 54.7066C201.266 54.4582 200.925 54.0996 200.698 53.67C200.471 53.2405 200.366 52.7567 200.396 52.2718C200.396 51.9982 200.396 51.7268 200.396 51.4579C200.396 51.1796 200.396 50.9083 200.396 50.637C200.363 50.1533 200.465 49.6699 200.691 49.2411C200.917 48.8122 201.259 48.4549 201.676 48.2091L204.612 46.5117L199.116 36.9462L196.181 38.6367C195.755 38.8849 195.268 39.0075 194.775 38.9903C194.283 38.973 193.805 38.8167 193.398 38.5393C192.938 38.24 192.462 37.966 191.972 37.7184C191.539 37.5014 191.175 37.1688 190.919 36.7574C190.664 36.3461 190.527 35.8721 190.525 35.3879V32H179.485V35.3879C179.481 35.8726 179.343 36.3468 179.086 36.7581C178.83 37.1694 178.464 37.5017 178.031 37.7184C177.542 37.9607 177.066 38.2278 176.605 38.5184C176.202 38.7904 175.73 38.9438 175.245 38.961C174.759 38.9782 174.278 38.8586 173.857 38.6158L170.921 36.9253L165.397 46.4908L168.347 48.1952C168.763 48.4427 169.103 48.8005 169.329 49.2289C169.555 49.6573 169.658 50.1397 169.627 50.6231C169.627 50.8967 169.627 51.168 169.627 51.437C169.627 51.706 169.627 51.9773 169.627 52.2509C169.657 52.7358 169.553 53.2196 169.326 53.6492C169.099 54.0787 168.758 54.4374 168.34 54.6858L165.397 56.3762L170.921 65.9417L173.843 64.2512C174.269 64.0062 174.756 63.8854 175.248 63.9026C175.74 63.9198 176.217 64.0743 176.625 64.3486C177.088 64.6478 177.566 64.9218 178.058 65.1695C178.493 65.3867 178.859 65.7202 179.116 66.1328C179.372 66.5454 179.51 67.021 179.512 67.5069V70.8879H190.56V67.5278C190.561 67.0415 190.697 66.5652 190.954 66.1524C191.211 65.7395 191.578 65.4063 192.014 65.1904C192.503 64.9412 192.979 64.6672 193.44 64.3695C193.848 64.0936 194.325 63.9382 194.817 63.921C195.309 63.9038 195.796 64.0254 196.222 64.2721L199.116 65.9625L204.612 56.3971L201.683 54.7066ZM184.987 60.5085C183.199 60.5085 181.45 59.9781 179.963 58.9844C178.476 57.9906 177.317 56.5782 176.632 54.9257C175.948 53.2732 175.768 51.4548 176.117 49.7005C176.466 47.9462 177.328 46.3347 178.592 45.07C179.857 43.8052 181.469 42.9438 183.223 42.5949C184.977 42.2459 186.796 42.425 188.448 43.1095C190.101 43.794 191.513 44.9532 192.507 46.4404C193.501 47.9276 194.031 49.6761 194.031 51.4648C194.031 53.8597 193.081 56.1569 191.39 57.8523C189.698 59.5477 187.403 60.503 185.008 60.5085H184.987Z" fill="#EBEBEB"/>
<path d="M166.751 84.7236C166.444 84.5403 166.193 84.2758 166.026 83.9591C165.859 83.6425 165.783 83.286 165.805 82.9288C165.805 82.7271 165.805 82.5323 165.805 82.3305C165.805 82.1288 165.805 81.927 165.805 81.7253C165.784 81.3692 165.861 81.0142 166.028 80.6989C166.195 80.3837 166.445 80.1203 166.751 79.9374L168.915 78.6922L164.852 71.652L162.688 72.8973C162.378 73.0763 162.024 73.1647 161.666 73.1524C161.308 73.1401 160.961 73.0276 160.664 72.8277C160.326 72.6059 159.975 72.4039 159.613 72.2225C159.295 72.0621 159.027 71.8167 158.839 71.5134C158.651 71.2102 158.551 70.8609 158.549 70.5042V68.0137H150.417V70.5042C150.415 70.8609 150.315 71.2102 150.127 71.5134C149.939 71.8167 149.671 72.0621 149.352 72.2225C148.991 72.4039 148.64 72.6059 148.302 72.8277C148.005 73.0276 147.658 73.1401 147.3 73.1524C146.942 73.1647 146.588 73.0763 146.278 72.8973L144.114 71.652L140.051 78.6922L142.222 79.9444C142.529 80.1257 142.779 80.3891 142.945 80.7049C143.111 81.0207 143.186 81.3764 143.161 81.7323C143.161 81.934 143.161 82.1288 143.161 82.3305C143.161 82.5323 143.161 82.7271 143.161 82.9288C143.187 83.2865 143.112 83.6442 142.944 83.9614C142.777 84.2786 142.524 84.5427 142.215 84.7236L140.051 85.9689L144.114 93.0091L146.271 91.7638C146.581 91.5848 146.935 91.4964 147.293 91.5087C147.651 91.521 147.998 91.6335 148.295 91.8334C148.633 92.0551 148.984 92.2572 149.345 92.4386C149.665 92.598 149.935 92.843 150.124 93.1463C150.313 93.4497 150.414 93.7995 150.417 94.1569V96.6474H158.549V94.1569C158.551 93.8002 158.651 93.4509 158.839 93.1476C159.027 92.8444 159.295 92.599 159.613 92.4386C159.978 92.2588 160.331 92.0566 160.671 91.8334C160.968 91.6335 161.315 91.521 161.673 91.5087C162.031 91.4964 162.385 91.5848 162.695 91.7638L164.852 93.0091L168.915 85.9689L166.751 84.7236ZM154.486 88.9881C153.169 88.9895 151.882 88.6002 150.786 87.8695C149.69 87.1388 148.836 86.0995 148.331 84.8831C147.826 83.6667 147.693 82.3279 147.949 81.036C148.205 79.7441 148.839 78.5572 149.769 77.6254C150.7 76.6936 151.886 76.0589 153.178 75.8014C154.47 75.544 155.809 75.6754 157.026 76.1791C158.242 76.6828 159.283 77.5361 160.015 78.6311C160.746 79.7261 161.137 81.0135 161.137 82.3305C161.137 84.095 160.437 85.7873 159.19 87.0357C157.942 88.284 156.251 88.9862 154.486 88.9881Z" fill="#EBEBEB"/>
<path d="M129.479 55.1977C129.255 55.0639 129.073 54.8708 128.951 54.6398C128.83 54.4088 128.774 54.1486 128.79 53.888C128.79 53.7408 128.79 53.5986 128.79 53.4514C128.79 53.3042 128.79 53.157 128.79 53.0098C128.775 52.75 128.831 52.4909 128.952 52.2608C129.074 52.0308 129.256 51.8386 129.479 51.7052L131.054 50.7965L128.096 45.6593L126.521 46.568C126.295 46.6986 126.038 46.7631 125.777 46.7541C125.516 46.7452 125.264 46.6631 125.047 46.5172C124.801 46.3554 124.546 46.2079 124.283 46.0756C124.051 45.9585 123.855 45.7795 123.719 45.5582C123.582 45.3369 123.509 45.082 123.508 44.8217V43.0044H117.587V44.8217C117.586 45.082 117.513 45.3369 117.376 45.5582C117.239 45.7795 117.044 45.9585 116.812 46.0756C116.549 46.2079 116.293 46.3554 116.047 46.5172C115.831 46.6631 115.578 46.7452 115.317 46.7541C115.057 46.7631 114.799 46.6986 114.573 46.568L112.998 45.6593L110.04 50.7965L111.62 51.7103C111.844 51.8426 112.026 52.0347 112.147 52.2652C112.268 52.4956 112.322 52.7552 112.304 53.0149C112.304 53.1621 112.304 53.3042 112.304 53.4514C112.304 53.5986 112.304 53.7408 112.304 53.888C112.323 54.149 112.268 54.41 112.146 54.6415C112.025 54.8729 111.841 55.0656 111.615 55.1977L110.04 56.1063L112.998 61.2435L114.568 60.3349C114.794 60.2042 115.052 60.1397 115.312 60.1487C115.573 60.1577 115.826 60.2398 116.042 60.3856C116.288 60.5475 116.544 60.6949 116.807 60.8273C117.04 60.9436 117.236 61.1224 117.374 61.3437C117.511 61.5651 117.585 61.8203 117.587 62.0811V63.8984H123.508V62.0811C123.509 61.8208 123.582 61.566 123.719 61.3447C123.855 61.1234 124.051 60.9443 124.283 60.8273C124.548 60.6961 124.805 60.5486 125.052 60.3856C125.269 60.2398 125.522 60.1577 125.782 60.1487C126.043 60.1397 126.301 60.2042 126.526 60.3349L128.096 61.2435L131.054 56.1063L129.479 55.1977ZM120.55 58.3094C119.591 58.3104 118.653 58.0264 117.855 57.4932C117.058 56.96 116.436 56.2016 116.068 55.314C115.7 54.4264 115.604 53.4495 115.79 52.5068C115.977 51.5641 116.438 50.698 117.116 50.0181C117.793 49.3382 118.657 48.875 119.597 48.6871C120.538 48.4993 121.512 48.5952 122.398 48.9627C123.284 49.3303 124.042 49.9529 124.575 50.7519C125.107 51.5509 125.392 52.4904 125.392 53.4514C125.392 54.739 124.882 55.9739 123.974 56.8848C123.066 57.7957 121.834 58.3081 120.55 58.3094Z" fill="#EBEBEB"/>
<path d="M213.259 229.359C248.314 223.694 272.14 190.683 266.475 155.627C260.809 120.572 227.799 96.7461 192.743 102.411C157.688 108.077 133.862 141.087 139.527 176.143C145.192 211.199 178.203 235.024 213.259 229.359Z" fill="#DBDBDB" stroke="#EBEBEB" stroke-width="8"/>
<path d="M203.483 117.047H202.467V125.016H203.483V117.047Z" fill="#37474F"/>
<path d="M179.015 123.276L178.136 123.784L182.12 130.685L183 130.177L179.015 123.276Z" fill="#37474F"/>
<path d="M160.853 140.953L160.345 141.832L167.246 145.817L167.754 144.937L160.853 140.953Z" fill="#37474F"/>
<path d="M162.076 165.408H154.107V166.423H162.076V165.408Z" fill="#37474F"/>
<path d="M167.315 185.811L160.414 189.796L160.922 190.675L167.823 186.691L167.315 185.811Z" fill="#37474F"/>
<path d="M182.119 201.119L178.136 208.022L179.016 208.529L182.998 201.627L182.119 201.119Z" fill="#37474F"/>
<path d="M203.483 206.776H202.467V214.745H203.483V206.776Z" fill="#37474F"/>
<path d="M223.848 201.032L222.969 201.54L226.953 208.442L227.833 207.934L223.848 201.032Z" fill="#37474F"/>
<path d="M238.67 186.016L238.162 186.896L245.062 190.881L245.57 190.002L238.67 186.016Z" fill="#37474F"/>
<path d="M251.805 165.408H243.836V166.423H251.805V165.408Z" fill="#37474F"/>
<path d="M244.978 140.968L238.077 144.953L238.585 145.833L245.485 141.847L244.978 140.968Z" fill="#37474F"/>
<path d="M227.005 123.447L223.026 130.351L223.906 130.858L227.885 123.954L227.005 123.447Z" fill="#37474F"/>
<path d="M203.757 120.68L205.476 169.471L200.476 169.392L202.39 120.641L203.757 120.68Z" fill="#263238"/>
<path d="M234.148 148.883L201.295 169.822L198.913 165.446L233.484 147.712L234.148 148.883Z" fill="#FF5722"/>
<path d="M23.1849 81.2943C23.1849 97.8889 36.6375 111.341 53.2321 111.341C69.8267 111.341 83.2792 97.8889 83.2792 81.2943C83.2792 64.6997 69.8267 51.2471 53.2321 51.2471C36.6375 51.2471 23.1849 64.6997 23.1849 81.2943Z" fill="#03A856"/>
<path d="M53.796 62.6206C54.0377 62.6186 54.2773 62.665 54.501 62.7571C54.7247 62.8492 54.9279 62.9851 55.0988 63.1569C55.2698 63.3287 55.4049 63.5329 55.4965 63.7578C55.5881 63.9826 55.6343 64.2235 55.6324 64.4664V65.4151C57.9894 65.6854 60.2539 66.4928 62.2536 67.7757C62.637 67.9658 62.9596 68.2603 63.1847 68.6256C63.4098 68.9909 63.5283 69.4125 63.5266 69.8422C63.5267 70.1559 63.4645 70.4665 63.3438 70.7559C63.223 71.0452 63.0461 71.3074 62.8233 71.5272C62.6006 71.747 62.3365 71.9199 62.0464 72.0359C61.7564 72.1519 61.4463 72.2087 61.1342 72.2028C60.6801 72.1925 60.2374 72.0577 59.8539 71.813C58.4953 70.9612 57.0149 70.3239 55.4641 69.9231V78.1742C61.961 79.8068 64.7411 82.4248 64.7411 86.999C64.7411 91.7276 61.083 94.8604 55.6397 95.3751V97.9564C55.6416 98.1993 55.5955 98.4402 55.5039 98.6651C55.4123 98.8899 55.2771 99.0942 55.1062 99.266C54.9352 99.4378 54.732 99.5737 54.5083 99.6657C54.2847 99.7578 54.045 99.8042 53.8033 99.8022C53.5592 99.8051 53.317 99.7597 53.0905 99.6685C52.8639 99.5773 52.6574 99.4422 52.4828 99.2708C52.3082 99.0994 52.1689 98.8951 52.0728 98.6695C51.9768 98.444 51.9259 98.2017 51.923 97.9564V95.2869C48.7586 94.9502 45.7344 93.7976 43.1435 91.9408C42.788 91.7285 42.4945 91.4256 42.2928 91.0628C42.0911 90.6999 41.9883 90.29 41.9948 89.8744C41.9899 89.563 42.0472 89.2538 42.1635 88.9652C42.2798 88.6765 42.4526 88.4143 42.6717 88.1941C42.8907 87.9739 43.1516 87.8002 43.4388 87.6833C43.7259 87.5665 44.0335 87.5088 44.3433 87.5138C44.8519 87.5153 45.3466 87.6802 45.7554 87.9844C47.612 89.4243 49.7759 90.4111 52.0766 90.8672V82.4248C45.8359 80.7922 42.9313 78.4316 42.9313 73.6001C42.9313 69.0038 46.5894 65.8269 51.9084 65.393V64.4664C51.9112 64.2205 51.9624 63.9776 52.0589 63.7516C52.1554 63.5255 52.2953 63.3209 52.4707 63.1494C52.6461 62.9779 52.8535 62.8429 53.0809 62.7522C53.3083 62.6614 53.5513 62.6167 53.796 62.6206ZM52.084 77.2697V69.6657C49.3477 69.9231 47.9795 71.3865 47.9795 73.2765C47.9795 75.1665 48.7916 76.196 52.084 77.2697ZM55.4787 83.2411V91.0584C58.215 90.7569 59.7149 89.3817 59.7149 87.3226C59.6929 85.4326 58.7491 84.2707 55.4787 83.2411Z" fill="white"/>
<path d="M65.1437 244.569C65.1437 244.569 80.5111 304.118 86.5912 327.652H148.506C141.549 303.527 124.491 244.569 124.491 244.569H65.1437Z" fill="#263238"/>
<path d="M37.6302 304.118C37.6302 304.118 36.2389 317.788 35.2928 327.652H94.3342C94.6959 319.158 95.169 308.348 95.1899 308.341L95.2594 308.306L97.8473 307.026L107.155 302.462L107.545 302.274C110.223 300.966 112.269 299.965 112.275 299.951C112.282 299.937 112.373 299.519 112.505 298.81C112.839 297.112 113.507 293.613 114.342 289.189C115.378 283.714 116.679 276.806 117.931 270.086C120.29 257.501 122.488 245.55 122.544 244.77C122.544 244.666 122.544 244.603 122.544 244.569H42.6808C42.6808 244.569 29.0665 278.357 37.6302 304.118Z" fill="#263238"/>
<path d="M87.5791 311.478C90.3061 309.613 93.2418 308.048 96.1289 306.441C99.0159 304.834 102.07 303.22 105.173 301.808C111.169 299.025 117.5 297.07 123.81 295.136C123.97 295.088 124.074 295.345 123.914 295.408C117.841 297.989 111.948 300.973 105.903 303.582C102.863 304.91 99.802 306.191 96.755 307.512C93.7079 308.834 90.7444 310.33 87.7113 311.596C87.5652 311.624 87.5095 311.526 87.5791 311.478Z" fill="#455A64"/>
<path d="M104.206 282.134C104.283 279.199 104.491 276.263 104.644 273.327C104.992 266.371 105.263 259.414 105.917 252.506C105.917 252.449 105.94 252.394 105.981 252.353C106.021 252.313 106.076 252.29 106.133 252.29C106.19 252.29 106.245 252.313 106.285 252.353C106.326 252.394 106.349 252.449 106.349 252.506C106.439 257.87 106.23 263.247 106.119 268.611C106.063 271.289 105.987 273.974 105.91 276.66C105.763 279.219 105.745 281.785 105.855 284.347C106.001 286.281 106.432 290.037 108.992 290.274C111.399 290.489 112.721 287.922 113.326 286.044C114.85 281.272 115.413 276.117 115.886 271.15C116.185 268.207 117.118 256.242 116.951 253.271C116.951 253.076 117.243 253.083 117.257 253.271C117.424 256.297 117.591 268.472 117.396 271.491C117.201 274.385 116.958 277.293 116.512 280.166C116.212 282.786 115.579 285.358 114.627 287.818C113.737 289.849 112.679 291.651 110.363 292.096C110.081 292.151 109.794 292.179 109.507 292.18C109.507 292.806 109.396 293.432 109.347 294.044C109.277 295.018 109.159 295.985 109.027 296.952C108.887 297.892 108.684 298.822 108.422 299.735C108.215 300.673 107.878 301.576 107.42 302.42C107.402 302.446 107.376 302.466 107.346 302.477C107.317 302.487 107.284 302.489 107.254 302.48C107.223 302.472 107.196 302.454 107.176 302.43C107.156 302.405 107.144 302.375 107.142 302.344C107.122 301.41 107.201 300.478 107.378 299.561C107.51 298.615 107.643 297.662 107.837 296.73C108.032 295.797 108.206 294.886 108.401 293.947C108.526 293.335 108.617 292.702 108.728 292.076C107.984 291.951 107.283 291.644 106.688 291.181C106.093 290.719 105.623 290.115 105.319 289.425C104.234 287.262 104.143 284.59 104.206 282.134Z" fill="#455A64"/>
<path d="M46.5969 277.293C50.8613 277.585 55.0701 278.127 59.3485 277.626C63.3784 277.228 67.225 275.744 70.4792 273.334C77.5124 267.95 80.5942 259.149 82.5003 250.892C82.5111 250.857 82.5339 250.828 82.5645 250.808C82.5952 250.789 82.6317 250.781 82.6676 250.786C82.7036 250.791 82.7366 250.808 82.7607 250.835C82.7849 250.863 82.7986 250.897 82.7995 250.934C82.0064 258.092 80.4412 265.501 75.7524 271.268C73.7248 273.808 71.1742 275.882 68.2739 277.348C65.1755 278.764 61.7935 279.449 58.3885 279.352C54.3961 279.317 50.4236 278.787 46.5621 277.773C46.5054 277.76 46.4553 277.727 46.4207 277.68C46.3862 277.633 46.3695 277.576 46.3737 277.518C46.3779 277.46 46.4027 277.405 46.4436 277.364C46.4846 277.322 46.5389 277.297 46.5969 277.293Z" fill="#455A64"/>
<path d="M93.6174 327.652H94.6818C94.8557 324.821 95.0018 321.976 95.0922 319.137C95.1549 317.252 95.1688 315.36 95.1896 313.481C95.1896 311.756 95.287 310.003 95.2592 308.306V308.16C95.2592 308.041 95.2592 307.93 95.2592 307.826C95.2592 307.8 95.2489 307.775 95.2307 307.757C95.2124 307.739 95.1876 307.728 95.1618 307.728C95.136 307.728 95.1112 307.739 95.0929 307.757C95.0747 307.775 95.0644 307.8 95.0644 307.826C95.0644 307.986 95.0644 308.139 95.0157 308.292C94.7792 310.274 94.6609 312.285 94.4801 314.275C94.1461 318.066 93.9235 321.864 93.7218 325.67C93.68 326.323 93.6522 326.991 93.6174 327.652Z" fill="#455A64"/>
<path d="M146.809 197.242L135.567 197.806C133.313 193.945 130.606 187.085 131.434 177.249C131.587 175.621 127.956 185.047 129.862 198.119C117.994 198.717 101.847 199.51 87.7463 200.087C87.3289 194.585 86.6889 189.499 86.6889 189.499C86.3403 193.126 85.6675 196.713 84.6784 200.22C82.7514 200.317 80.8591 200.366 79.0435 200.435C79.2313 191.872 77.3878 177.012 77.3878 177.012C76.5751 185.206 74.4273 193.213 71.0294 200.713C62.0691 200.985 56.1699 200.992 56.5386 200.56C69.6798 184.664 59.523 175.975 63.0152 162.187C67.1893 145.665 81.2835 142.709 80.5391 130.388C79.9548 120.371 78.2295 102.228 90.7933 98.0049C90.7933 98.0049 100.79 86.4568 117.124 92.2378C137.334 99.3754 130.231 130.5 131.733 136.761C133.911 145.693 138.273 148.747 141.73 158.904C145.264 169.179 140.721 176.184 140.374 183.252C140.026 190.32 149.028 197.166 146.809 197.242Z" fill="#263238"/>
<path d="M56.0794 198.335C57.858 195.589 59.2442 192.608 60.1978 189.479C61.1439 186.397 60.6152 183.28 59.9125 180.066C59.1106 176.815 58.4744 173.525 58.0064 170.209C57.5437 166.749 57.7802 163.231 58.7021 159.864C59.7038 156.492 61.4703 153.397 63.8639 150.82C66.1779 148.367 68.6934 146.112 71.3841 144.079C73.9233 141.992 76.4555 139.905 78.3408 137.303C80.264 134.651 81.4259 131.524 81.7009 128.26C81.9218 131.669 81.1044 135.064 79.3565 137.999C77.6104 140.963 75.1338 143.37 72.685 145.61C70.2197 147.733 67.8958 150.015 65.7283 152.441C63.6662 154.812 62.1404 157.6 61.2552 160.615C60.4511 163.668 60.2153 166.842 60.5595 169.979C60.8239 173.179 61.5056 176.386 62.0274 179.718C62.308 181.404 62.4615 183.109 62.4865 184.818C62.4625 186.571 62.1232 188.305 61.4848 189.938C60.1908 193.033 58.361 195.875 56.0794 198.335Z" fill="#263238"/>
<path d="M128.742 103.417C130.398 107.174 131.086 111.278 131.775 115.299C132.464 119.32 132.811 123.425 133.166 127.481L133.765 133.54C133.932 135.494 134.289 137.428 134.829 139.314C135.921 143.043 138.106 146.271 140.568 149.526C141.822 151.203 142.961 152.962 143.977 154.793C144.991 156.673 145.791 158.661 146.363 160.72C146.866 162.778 147.215 164.871 147.407 166.981C147.604 169.093 147.543 171.221 147.226 173.318C146.913 175.405 146.377 177.409 145.939 179.357C145.488 181.296 145.225 183.273 145.153 185.263C144.958 189.172 147.121 193.006 150.342 195.475C148.506 194.446 146.955 192.976 145.828 191.198C144.701 189.42 144.034 187.39 143.887 185.291C143.793 183.197 143.914 181.099 144.248 179.03C144.547 176.977 145.007 175.009 145.18 173.054C145.479 169.131 145.059 165.187 143.942 161.415C143.379 159.559 142.628 157.764 141.702 156.059C140.718 154.337 139.621 152.682 138.419 151.105C137.172 149.441 136.011 147.713 134.94 145.93C133.856 144.079 133.007 142.099 132.415 140.037C131.892 137.986 131.568 135.89 131.448 133.776C131.281 131.689 131.191 129.686 131.1 127.648C130.905 123.578 130.773 119.515 130.467 115.466C130.308 111.401 129.73 107.364 128.742 103.417Z" fill="#263238"/>
<path d="M100.088 169.068C105.444 176.317 144.513 223.726 153.056 227.393C160.562 230.613 186.017 239.177 184.285 217.764C183.158 203.851 129.167 165.054 106.467 156.086C96.046 151.961 88.8319 153.867 100.088 169.068Z" fill="#EB9481"/>
<path d="M129.786 167.432C128.919 179.828 125.082 185.309 117.556 194.786C117.556 194.786 102.22 186.959 95.9451 174.861C109.215 176.225 110.17 165.167 110.895 157.75C123.023 157.75 129.786 167.432 129.786 167.432Z" fill="#009CD9"/>
<path d="M99.6837 166.355C99.6829 166.701 99.5929 167.041 99.4223 167.342C99.2516 167.643 99.0062 167.895 98.7097 168.073C98.3341 167.377 97.9723 166.723 97.6314 166.069C97.3462 165.527 97.0888 165.005 96.8453 164.483C97.1552 164.353 97.4923 164.301 97.827 164.332C98.1617 164.363 98.4836 164.476 98.7642 164.661C99.0449 164.846 99.2756 165.097 99.4359 165.393C99.5963 165.688 99.6814 166.019 99.6837 166.355ZM121.987 164.323C121.585 164.323 121.192 164.443 120.858 164.666C120.523 164.89 120.263 165.207 120.109 165.579C119.956 165.95 119.916 166.359 119.995 166.753C120.074 167.148 120.268 167.51 120.553 167.793C120.838 168.077 121.2 168.27 121.595 168.348C121.989 168.425 122.398 168.384 122.769 168.229C123.14 168.075 123.457 167.813 123.679 167.478C123.902 167.143 124.02 166.75 124.018 166.348C124.018 166.081 123.966 165.817 123.863 165.571C123.761 165.325 123.611 165.102 123.423 164.914C123.234 164.726 123.01 164.577 122.764 164.475C122.517 164.374 122.253 164.322 121.987 164.323ZM109.82 183.426C109.521 183.426 109.226 183.493 108.957 183.621C109.769 184.739 110.559 185.801 111.329 186.807C111.592 186.516 111.765 186.155 111.826 185.768C111.887 185.38 111.835 184.983 111.675 184.625C111.515 184.267 111.255 183.963 110.925 183.75C110.596 183.538 110.212 183.425 109.82 183.426Z" fill="white"/>
<path d="M119.939 188.851C127.046 184.168 128.127 174.261 129.818 167.341C129.833 167.317 129.855 167.299 129.882 167.29C129.909 167.281 129.938 167.282 129.964 167.293C129.991 167.304 130.012 167.324 130.025 167.35C130.037 167.375 130.04 167.404 130.033 167.431C129.964 170.298 126.266 189.451 120.092 188.934C120.037 189.018 119.905 188.941 119.939 188.851Z" fill="#263238"/>
<path opacity="0.13" d="M126.573 181.085L119.464 196.974C119.464 196.974 105.815 180.348 99.5467 168.257C97.2788 163.888 103.445 161.598 103.779 159.275L126.573 181.085Z" fill="#050400"/>
<path d="M109.374 214.69C105.684 215.13 102.041 215.899 98.4868 216.985C96.7128 217.556 95.0085 218.224 93.2345 218.94C92.3719 219.302 91.5023 219.636 90.6257 219.935C89.7367 220.3 88.7994 220.534 87.8431 220.631C87.7596 220.631 87.7596 220.791 87.8431 220.791C88.7461 220.834 89.6511 220.803 90.5492 220.7C91.4231 220.566 92.2841 220.359 93.1232 220.081C94.9319 219.524 96.7059 218.857 98.5077 218.279C102.132 217.104 105.757 215.928 109.444 215.079C109.611 215.017 109.569 214.662 109.374 214.69Z" fill="#263238"/>
<path d="M118.502 218.55C115.478 218.196 112.433 218.049 109.389 218.112C107.865 218.154 106.355 218.3 104.839 218.488C104.143 218.585 103.399 218.689 102.675 218.814C101.952 218.94 101.103 219.204 100.31 219.322C100.227 219.322 100.227 219.489 100.31 219.482C101.061 219.399 101.827 219.482 102.578 219.434L104.853 219.336C106.369 219.274 107.886 219.239 109.402 219.155C112.436 219.002 115.462 218.884 118.502 218.849C118.676 218.849 118.662 218.564 118.502 218.55Z" fill="#263238"/>
<path d="M119.412 225.516L126.743 244.148L43.3076 245.156C43.3076 245.156 54.3876 192.632 77.0534 168.08C85.7588 176.471 96.5481 184.481 107.838 167.056C109.804 169.428 124.66 188.355 126.743 201.865C128.578 213.809 119.412 225.516 119.412 225.516Z" fill="#D48574"/>
<path d="M119.809 218.564L126.787 234.962L48.2725 231.54C48.2725 231.54 57.9208 189.625 79.4935 168.017C87.7791 175.402 98.048 182.451 108.793 167.116C110.665 169.203 124.804 185.861 126.787 197.75C128.533 208.262 119.809 218.564 119.809 218.564Z" fill="#009CD9"/>
<path d="M75.3499 166.348C75.3513 166.75 75.2333 167.143 75.011 167.478C74.7886 167.813 74.4718 168.075 74.1008 168.229C73.7297 168.384 73.3211 168.425 72.9266 168.348C72.5321 168.27 72.1695 168.077 71.8847 167.793C71.5999 167.51 71.4057 167.148 71.3268 166.753C71.2478 166.359 71.2877 165.95 71.4412 165.579C71.5947 165.207 71.8551 164.89 72.1893 164.666C72.5235 164.443 72.9165 164.323 73.3186 164.323C73.8561 164.323 74.3718 164.536 74.7525 164.916C75.1333 165.295 75.3481 165.81 75.3499 166.348ZM97.6531 164.323C97.251 164.323 96.858 164.443 96.5238 164.666C96.1896 164.89 95.9292 165.207 95.7757 165.579C95.6222 165.95 95.5823 166.359 95.6613 166.753C95.7402 167.148 95.9344 167.51 96.2192 167.793C96.504 168.077 96.8666 168.27 97.2611 168.348C97.6556 168.425 98.0642 168.384 98.4353 168.229C98.8063 168.075 99.1231 167.813 99.3455 167.478C99.5679 167.143 99.6858 166.75 99.6844 166.348C99.6844 166.081 99.6318 165.817 99.5297 165.571C99.4275 165.325 99.2778 165.102 99.089 164.914C98.9003 164.726 98.6763 164.577 98.4299 164.475C98.1835 164.374 97.9195 164.322 97.6531 164.323ZM73.3047 201.145C72.9026 201.145 72.5096 201.264 72.1754 201.488C71.8412 201.711 71.5808 202.029 71.4273 202.401C71.2737 202.772 71.2339 203.181 71.3129 203.575C71.3918 203.969 71.586 204.331 71.8708 204.615C72.1556 204.899 72.5182 205.092 72.9127 205.17C73.3072 205.247 73.7158 205.206 74.0869 205.051C74.4579 204.896 74.7747 204.635 74.9971 204.3C75.2194 203.965 75.3374 203.571 75.336 203.169C75.336 202.634 75.1237 202.12 74.7456 201.74C74.3674 201.361 73.8543 201.147 73.3186 201.145H73.3047ZM97.6531 201.145C97.251 201.145 96.858 201.264 96.5238 201.488C96.1896 201.711 95.9292 202.029 95.7757 202.401C95.6222 202.772 95.5823 203.181 95.6613 203.575C95.7402 203.969 95.9344 204.331 96.2192 204.615C96.504 204.899 96.8666 205.092 97.2611 205.17C97.6556 205.247 98.0642 205.206 98.4353 205.051C98.8063 204.896 99.1231 204.635 99.3455 204.3C99.5679 203.965 99.6858 203.571 99.6844 203.169C99.6844 202.903 99.6318 202.639 99.5297 202.393C99.4275 202.147 99.2778 201.924 99.089 201.735C98.9003 201.547 98.6763 201.398 98.4299 201.297C98.1835 201.196 97.9195 201.144 97.6531 201.145ZM122.001 201.145C121.599 201.145 121.206 201.264 120.872 201.488C120.538 201.711 120.278 202.029 120.124 202.401C119.971 202.772 119.931 203.181 120.01 203.575C120.089 203.969 120.283 204.331 120.568 204.615C120.852 204.899 121.215 205.092 121.609 205.17C122.004 205.247 122.413 205.206 122.784 205.051C123.155 204.896 123.472 204.635 123.694 204.3C123.916 203.965 124.034 203.571 124.033 203.169C124.033 202.902 123.98 202.637 123.877 202.39C123.774 202.143 123.623 201.919 123.433 201.73C123.242 201.542 123.017 201.394 122.769 201.293C122.521 201.193 122.255 201.142 121.988 201.145H122.001ZM61.1513 183.426C60.7493 183.426 60.3563 183.546 60.0221 183.769C59.6879 183.993 59.4275 184.31 59.274 184.682C59.1204 185.054 59.0806 185.462 59.1595 185.857C59.2385 186.251 59.4326 186.613 59.7174 186.897C60.0022 187.18 60.3648 187.373 60.7593 187.451C61.1538 187.528 61.5625 187.487 61.9335 187.332C62.3046 187.178 62.6214 186.916 62.8437 186.581C63.0661 186.246 63.1841 185.853 63.1827 185.451C63.1827 185.184 63.1301 184.92 63.0279 184.674C62.9258 184.428 62.776 184.205 62.5873 184.017C62.3986 183.829 62.1746 183.68 61.9282 183.578C61.6818 183.477 61.4178 183.425 61.1513 183.426ZM85.4997 183.426C85.0977 183.426 84.7047 183.546 84.3705 183.769C84.0363 183.993 83.7759 184.31 83.6224 184.682C83.4688 185.054 83.429 185.462 83.508 185.857C83.5869 186.251 83.7811 186.613 84.0658 186.897C84.3506 187.18 84.7132 187.373 85.1077 187.451C85.5022 187.528 85.9109 187.487 86.2819 187.332C86.653 187.178 86.9698 186.916 87.1921 186.581C87.4145 186.246 87.5325 185.853 87.5311 185.451C87.5311 185.183 87.4781 184.918 87.375 184.671C87.272 184.424 87.121 184.2 86.9308 184.012C86.7406 183.824 86.515 183.675 86.2669 183.574C86.0189 183.474 85.7534 183.424 85.4858 183.426H85.4997ZM109.848 183.426C109.446 183.426 109.053 183.546 108.719 183.769C108.385 183.993 108.124 184.31 107.971 184.682C107.817 185.054 107.777 185.462 107.856 185.857C107.935 186.251 108.129 186.613 108.414 186.897C108.699 187.18 109.062 187.373 109.456 187.451C109.851 187.528 110.259 187.487 110.63 187.332C111.001 187.178 111.318 186.916 111.541 186.581C111.763 186.246 111.881 185.853 111.88 185.451C111.88 185.182 111.826 184.916 111.722 184.668C111.618 184.42 111.466 184.195 111.274 184.007C111.083 183.818 110.855 183.67 110.606 183.57C110.356 183.471 110.089 183.422 109.82 183.426H109.848ZM73.3603 237.967C72.9583 237.967 72.5653 238.086 72.2311 238.31C71.8968 238.533 71.6365 238.851 71.4829 239.222C71.3294 239.594 71.2896 240.003 71.3685 240.397C71.4475 240.791 71.6416 241.153 71.9264 241.437C72.2112 241.721 72.5738 241.914 72.9683 241.991C73.3628 242.069 73.7715 242.028 74.1425 241.873C74.5136 241.718 74.8304 241.457 75.0527 241.122C75.2751 240.787 75.3931 240.393 75.3917 239.991C75.3918 239.721 75.3378 239.454 75.2331 239.205C75.1283 238.956 74.9748 238.731 74.7816 238.542C74.5885 238.354 74.3595 238.205 74.1082 238.107C73.857 238.008 73.5885 237.96 73.3186 237.967H73.3603ZM97.7087 237.967C97.3067 237.967 96.9137 238.086 96.5795 238.31C96.2453 238.533 95.9849 238.851 95.8314 239.222C95.6778 239.594 95.638 240.003 95.7169 240.397C95.7959 240.791 95.9901 241.153 96.2748 241.437C96.5596 241.721 96.9222 241.914 97.3167 241.991C97.7112 242.069 98.1199 242.028 98.4909 241.873C98.862 241.718 99.1788 241.457 99.4011 241.122C99.6235 240.787 99.7415 240.393 99.7401 239.991C99.7402 239.72 99.6859 239.451 99.5802 239.202C99.4746 238.952 99.3199 238.726 99.1252 238.537C98.9305 238.348 98.6999 238.2 98.447 238.102C98.1942 238.005 97.9242 237.958 97.6531 237.967H97.7087ZM122.057 237.967C121.655 237.967 121.262 238.086 120.928 238.31C120.594 238.533 120.333 238.851 120.18 239.222C120.026 239.594 119.986 240.003 120.065 240.397C120.144 240.791 120.338 241.153 120.623 241.437C120.908 241.721 121.271 241.914 121.665 241.991C122.06 242.069 122.468 242.028 122.839 241.873C123.21 241.718 123.527 241.457 123.75 241.122C123.972 240.787 124.09 240.393 124.089 239.991C124.089 239.719 124.034 239.449 123.927 239.198C123.821 238.948 123.665 238.721 123.469 238.532C123.273 238.343 123.04 238.195 122.786 238.098C122.531 238.001 122.26 237.956 121.988 237.967H122.057ZM61.2209 220.248C60.8191 220.248 60.4264 220.367 60.0923 220.59C59.7583 220.814 59.4979 221.131 59.3442 221.502C59.1904 221.873 59.1502 222.282 59.2286 222.676C59.307 223.07 59.5004 223.432 59.7845 223.716C60.0686 224 60.4306 224.193 60.8246 224.272C61.2187 224.35 61.6271 224.31 61.9983 224.156C62.3695 224.002 62.6867 223.742 62.9099 223.408C63.1331 223.074 63.2523 222.681 63.2523 222.279C63.2534 222.006 63.1993 221.736 63.0932 221.484C62.9872 221.233 62.8313 221.005 62.635 220.816C62.4388 220.626 62.2062 220.478 61.9512 220.38C61.6962 220.283 61.4241 220.238 61.1513 220.248H61.2209ZM85.5693 220.248C85.1676 220.248 84.7748 220.367 84.4408 220.59C84.1067 220.814 83.8463 221.131 83.6926 221.502C83.5388 221.873 83.4986 222.282 83.577 222.676C83.6554 223.07 83.8488 223.432 84.1329 223.716C84.417 224 84.779 224.193 85.173 224.272C85.5671 224.35 85.9755 224.31 86.3467 224.156C86.7179 224.002 87.0351 223.742 87.2583 223.408C87.4815 223.074 87.6007 222.681 87.6007 222.279C87.6019 222.005 87.5474 221.734 87.4405 221.481C87.3335 221.229 87.1764 221 86.9787 220.81C86.7809 220.62 86.5466 220.473 86.29 220.376C86.0334 220.279 85.7598 220.236 85.4858 220.248H85.5693ZM109.918 220.248C109.516 220.248 109.123 220.367 108.789 220.59C108.455 220.814 108.195 221.131 108.041 221.502C107.887 221.873 107.847 222.282 107.925 222.676C108.004 223.07 108.197 223.432 108.481 223.716C108.765 224 109.127 224.193 109.521 224.272C109.915 224.35 110.324 224.31 110.695 224.156C111.066 224.002 111.384 223.742 111.607 223.408C111.83 223.074 111.949 222.681 111.949 222.279C111.95 222.004 111.895 221.731 111.788 221.478C111.68 221.224 111.522 220.995 111.322 220.805C111.123 220.615 110.887 220.468 110.629 220.372C110.371 220.276 110.095 220.234 109.82 220.248H109.918Z" fill="white"/>
<path d="M107.844 212.769C103.702 213.332 99.6071 214.202 95.5935 215.371C93.6108 215.976 91.663 216.672 89.722 217.409C88.7551 217.778 87.7811 218.105 86.8002 218.446C85.7843 218.822 84.7259 219.072 83.6489 219.19C83.5515 219.19 83.5654 219.343 83.6489 219.343C84.6703 219.346 85.6906 219.278 86.7028 219.141C87.6824 218.976 88.6493 218.744 89.5968 218.446C91.6212 217.848 93.6108 217.159 95.6283 216.54C99.691 215.294 103.754 214.049 107.9 213.096C108.102 213.068 108.039 212.741 107.844 212.769Z" fill="#263238"/>
<path d="M118.286 215.976C114.845 215.782 111.396 215.782 107.955 215.976C106.23 216.074 104.526 216.275 102.821 216.519C102.007 216.637 101.193 216.769 100.379 216.908C99.5654 217.048 98.6123 217.34 97.7219 217.479C97.6314 217.479 97.6314 217.646 97.7219 217.632C98.5706 217.521 99.4402 217.548 100.296 217.493L102.863 217.305C104.581 217.187 106.293 217.082 108.011 216.943C111.44 216.672 114.863 216.428 118.3 216.248C118.495 216.255 118.467 215.99 118.286 215.976Z" fill="#263238"/>
<path d="M71.5922 159.774C42.6941 179.162 15.6743 203.538 11.9803 216.157C6.84626 233.64 16.7943 237.633 21.7197 238.384C35.0904 240.471 71.2374 190.752 82.6742 171.245C93.7492 152.309 77.9367 155.516 71.5922 159.774Z" fill="#EB9481"/>
<path d="M74.0141 188.581C58.6218 190.023 50.5263 190.167 46.0515 178.044C46.0515 178.044 51.215 162.073 70.2478 159.912C82.5959 154.145 94.8563 153.443 84.6996 170.96C78.8072 181.131 74.0141 188.581 74.0141 188.581Z" fill="#009CD9"/>
<path d="M75.3493 166.348C75.3506 166.75 75.2327 167.143 75.0103 167.478C74.7879 167.813 74.4712 168.075 74.1001 168.229C73.729 168.384 73.3204 168.425 72.9259 168.348C72.5314 168.27 72.1688 168.077 71.884 167.793C71.5992 167.51 71.405 167.148 71.3261 166.753C71.2472 166.359 71.287 165.95 71.4405 165.579C71.5941 165.207 71.8544 164.89 72.1886 164.666C72.5228 164.443 72.9158 164.323 73.3179 164.323C73.8554 164.323 74.3711 164.536 74.7518 164.916C75.1326 165.295 75.3474 165.81 75.3493 166.348Z" fill="white"/>
<path d="M46.3819 178.678C54.9373 195.095 61.8419 184.228 67.4607 189.44C67.4893 189.453 67.5116 189.477 67.5227 189.506C67.5338 189.535 67.5327 189.568 67.5198 189.597C67.5069 189.625 67.4832 189.648 67.4538 189.659C67.4245 189.67 67.3919 189.669 67.3633 189.656C65.5198 188.87 51.6351 193.834 46.2915 178.824C46.208 178.769 46.2984 178.643 46.3819 178.678Z" fill="#263238"/>
<path d="M80.1563 180.122C80.3719 179.878 79.2797 181.548 79.5023 181.304L78.7162 182.612C77.6797 184.323 74.8483 188.943 74.5422 188.991C74.2361 189.04 72.483 188.024 71.9891 187.816C71.9605 187.802 71.9386 187.777 71.9282 187.747C71.9177 187.717 71.9196 187.684 71.9335 187.656C71.9473 187.627 71.9719 187.605 72.0019 187.595C72.032 187.584 72.0649 187.586 72.0935 187.6C72.7467 187.944 73.4516 188.179 74.1805 188.296C74.2848 188.226 75.3701 186.39 75.8153 185.631C76.7127 184.122 77.5962 182.598 78.5075 181.096C80.3511 178.062 82.3154 176.423 82.3154 169.398C82.3571 169.349 83.7563 171.98 82.3154 176.062C81.1307 178.823 81.7501 177.575 80.1563 180.122Z" fill="#263238"/>
<path d="M102.355 213.889C97.3534 215.378 108.505 255.191 116.102 254.043C153.007 248.436 177.397 234.815 181.954 229.319C187.93 222.112 183.936 211.121 178.719 207.907C171.157 203.246 143.671 201.583 102.355 213.889Z" fill="#EB9481"/>
<path d="M115.99 210.195C119.468 209.145 122.988 208.254 126.529 207.475C130.07 206.696 133.646 206.021 137.236 205.465C139.031 205.179 140.832 204.964 142.634 204.734C144.436 204.505 146.252 204.352 148.074 204.275C151.705 203.994 155.355 204.104 158.962 204.602C158.05 204.602 157.146 204.602 156.241 204.553L153.535 204.658C152.631 204.658 151.734 204.783 150.836 204.839C149.939 204.894 149.034 204.992 148.137 205.089C144.547 205.451 140.965 205.931 137.396 206.48C133.827 207.03 130.244 207.642 126.689 208.261L115.99 210.195Z" fill="#263238"/>
<path d="M106.362 213.131C106.362 213.131 91.6907 215.824 81.1791 219.128C75.3147 220.972 62.7926 227.476 59.1056 230.801C53.5889 235.775 33.6928 260.096 39.4877 265.042C44.733 269.522 59.1682 246.461 59.1682 246.461C59.1682 246.461 42.5417 268.444 49.8532 272.681C57.1646 276.917 70.0276 248.687 70.0276 248.687C70.0276 248.687 53.4567 271.644 61.6795 274.837C67.8988 277.23 80.9704 252.318 80.9704 252.318C80.9704 252.318 66.8623 272.166 73.1511 274.907C80.1078 277.94 93.6038 255.699 93.6038 255.699C110.759 259.985 120.338 255.359 126.996 250.983C128.554 249.905 106.362 213.131 106.362 213.131Z" fill="#EB9481"/>
<path d="M64.4341 238.474C62.3888 240.986 60.2601 243.511 58.4791 246.196C56.6982 248.881 54.9382 251.636 53.3868 254.475C49.5607 261.431 48.2598 266.412 48.3711 266.113C51.0633 259.073 57.4148 249.354 59.2374 246.634C61.0601 243.914 62.7158 241.187 64.5384 238.502C64.5802 238.467 64.4828 238.412 64.4341 238.474Z" fill="#263238"/>
<path d="M74.2501 244.854C71.7735 248.172 69.1926 251.379 66.8691 254.809C64.5455 258.238 62.6533 261.668 60.5732 265.244C60.4132 265.522 60.615 265.515 60.7889 265.244C63.0011 261.765 65.3177 258.718 67.5786 255.261C69.8396 251.803 71.9614 248.269 74.3336 244.916C74.3684 244.854 74.2849 244.805 74.2501 244.854Z" fill="#263238"/>
<path d="M83.4678 248.777C79.4259 253.647 76.2954 259.282 73.3527 264.868C73.2067 265.146 73.4641 265.112 73.6241 264.833C76.8937 259.428 79.412 255.157 83.6417 248.916C83.7043 248.819 83.5582 248.673 83.4678 248.777Z" fill="#263238"/>
<path d="M110.063 221.187L125.089 217.848L124.227 215.622L115.093 206.404L100.073 209.743L100.929 211.969L110.063 221.187Z" fill="#263238"/>
<path d="M109.207 218.961L124.227 215.622L115.093 206.404L100.073 209.743L109.207 218.961Z" fill="#37474F"/>
<path d="M124.227 215.622L115.093 206.404L100.073 209.743" fill="#37474F"/>
<path d="M128.867 252.666L140.025 249.438L125.333 220.832L125.089 217.848L110.063 221.187L113.423 224.13L128.867 252.666Z" fill="#009CD9"/>
<path d="M12.948 239.727C22.0752 245.988 32.4963 239.156 64.3093 225.667C69.8746 223.302 70.9807 184.059 64.5458 184.887C56.4482 185.924 29.9502 198.188 21.8804 204.109C5.96351 215.768 6.4157 235.261 12.948 239.727Z" fill="#EB9481"/>
<path d="M47.0286 190.905C47.0286 190.905 51.4322 188.296 62.6325 185.304C71.384 182.974 93.5758 183.586 109.145 203.733C115.107 211.448 112.296 219.003 104.679 212.081C99.3151 207.211 96.0107 203.371 93.8124 202.272C93.8124 202.272 95.6002 213.222 91.0297 217.743C87.0276 221.692 82.75 225.351 78.2294 228.693C77.4336 228.007 76.683 227.271 75.9824 226.488C74.0169 228.111 71.6323 229.146 69.1039 229.472C66.5756 229.798 64.0065 229.403 61.6933 228.332L51.787 228.165L47.0286 190.905Z" fill="#EB9481"/>
<path d="M70.7652 185.673C75.0784 187.663 84.1429 192.038 90.3135 198.195C97.1658 205.033 108.526 220.053 103.427 225.062C99.6842 228.728 94.8423 223.378 94.8423 223.378C94.8423 223.378 98.2302 230.578 94.1466 233.118C90.4039 235.469 86.9117 231.1 86.9117 231.1C86.9117 231.1 88.2126 235.824 84.1777 237.361C79.308 239.246 77.388 229.048 70.8139 226.71C69.3182 226.244 70.7652 185.673 70.7652 185.673Z" fill="#EB9481"/>
<path d="M81.8745 204.234C85.6242 206.766 92.6504 214.71 94.8975 223.184C94.9462 223.378 94.8348 223.517 94.7514 223.351C91.225 216.499 86.88 210.101 81.8119 204.296C81.8036 204.288 81.799 204.277 81.799 204.265C81.799 204.253 81.8036 204.242 81.8119 204.234C81.8202 204.225 81.8315 204.221 81.8432 204.221C81.855 204.221 81.8662 204.225 81.8745 204.234Z" fill="#263238"/>
<path d="M75.1754 211.35C78.1807 213.868 85.0609 222.383 87.0435 231.045C87.0853 231.239 86.96 231.372 86.8835 231.205C83.7195 224.183 79.7683 217.543 75.1059 211.413C75.0711 211.371 75.1406 211.315 75.1754 211.35Z" fill="#263238"/>
<path d="M30.6246 198.856C32.2733 197.805 33.9846 196.852 35.696 195.892C37.4073 194.932 39.1743 194.056 40.9066 193.179C44.4127 191.435 48.0001 189.852 51.6686 188.428C55.3274 186.986 59.0902 185.823 62.9245 184.949C64.8492 184.526 66.7986 184.224 68.7611 184.045C70.723 183.871 72.6994 183.975 74.6326 184.351C72.6908 184.178 70.735 184.246 68.8098 184.553C66.8888 184.83 64.9862 185.223 63.1123 185.729C61.234 186.229 59.3696 186.786 57.547 187.412C55.7243 188.038 53.8669 188.685 52.0512 189.388C48.4128 190.779 44.8301 192.317 41.2613 193.889C39.4735 194.675 37.6995 195.496 35.9395 196.331C34.1794 197.165 32.3916 198.007 30.6246 198.856Z" fill="#263238"/>
<path d="M61.6722 228.331C62.5884 228.73 63.5515 229.011 64.5384 229.166C65.5141 229.336 66.5056 229.399 67.495 229.354C69.4647 229.267 71.3982 228.795 73.1856 227.963L73.3734 227.872L73.5195 228.025L77.3944 232.095C78.6813 233.486 79.697 235.1 81.1162 236.158C81.7681 236.691 82.5837 236.983 83.4258 236.985C84.2489 236.971 85.0352 236.642 85.6241 236.067C86.1718 235.426 86.5093 234.632 86.5911 233.792C86.7096 232.921 86.6955 232.037 86.5494 231.17L86.2641 229.451L87.4329 230.752C88.3727 231.872 89.6098 232.704 91.0016 233.152C91.6623 233.347 92.3653 233.347 93.026 233.152C93.6779 232.962 94.2496 232.564 94.6539 232.018C95.433 230.905 95.5235 229.312 95.4122 227.844C95.273 226.329 94.9578 224.835 94.473 223.392L93.7774 221.222L95.2661 222.961C96.4418 224.352 97.9792 225.667 99.7532 226.008C100.641 226.165 101.556 226.003 102.336 225.549C103.115 225.096 103.709 224.381 104.011 223.531C104.281 222.63 104.359 221.682 104.24 220.749C104.134 219.804 103.936 218.872 103.649 217.966C103.049 216.12 102.322 214.319 101.471 212.574C102.445 214.266 103.278 216.034 103.962 217.862C104.301 218.789 104.55 219.746 104.706 220.721C104.882 221.72 104.835 222.747 104.567 223.726C104.223 224.72 103.541 225.562 102.639 226.105C101.738 226.648 100.675 226.857 99.6349 226.697C98.6131 226.52 97.6449 226.113 96.8035 225.507C95.9618 224.935 95.2054 224.246 94.5565 223.462L95.3357 223.03C95.8583 224.546 96.2038 226.117 96.3652 227.712C96.4555 228.524 96.4555 229.343 96.3652 230.154C96.2727 231.011 95.977 231.834 95.5026 232.554C94.9658 233.262 94.2274 233.791 93.3843 234.072C92.5413 234.352 91.6331 234.371 90.779 234.126C89.9648 233.904 89.1985 233.534 88.5181 233.034C87.8459 232.552 87.234 231.992 86.6954 231.364L87.5789 230.954C87.7284 231.934 87.7284 232.931 87.5789 233.911C87.458 234.945 87.0207 235.917 86.3267 236.693C85.9547 237.081 85.5007 237.38 84.998 237.57C84.5095 237.761 83.9919 237.867 83.4675 237.883C82.4227 237.87 81.4128 237.505 80.6014 236.846C79.0014 235.636 78.0413 233.938 76.8587 232.575L73.116 228.401L73.4499 228.47C70.6424 229.708 67.5131 230.018 64.5175 229.354C63.5286 229.138 62.5721 228.795 61.6722 228.331Z" fill="#263238"/>
<path d="M84.2967 153.847C74.7898 156.262 75.711 156.789 68.8663 160.452C74.4501 157.277 85.4375 166.816 82.3154 175.983C86.8118 176.52 92.3532 176.723 99.0667 176.483C99.3951 176.561 118.64 177.623 108.013 164.535C104.41 158.35 102.599 155.738 102.599 155.738L102.974 154.792L108.178 141.575L93.6801 128.719L91.5931 126.993C91.5931 126.993 90.4105 130.708 88.9774 135.341C88.9148 135.557 88.8452 135.766 88.7757 136.037C88.7061 136.308 88.6017 136.538 88.5322 136.788C88.3096 137.484 88.087 138.18 87.8783 138.875C87.7113 139.418 87.5582 139.94 87.4052 140.51C87.2521 141.081 87.0991 141.637 86.9321 142.201C85.4086 147.822 84.2341 153.131 84.2967 153.847Z" fill="#EB9481"/>
<path d="M88.6639 135.871C89.4239 139.982 91.0687 143.879 93.4843 147.292C95.9 150.705 99.0287 153.551 102.654 155.635L107.885 142.174L93.4083 129.123L91.3213 127.37C91.3213 127.37 90.1039 131.147 88.6639 135.871Z" fill="#263238"/>
<path d="M129.493 124.635C125.605 149.29 110.397 149.749 105.075 148.9C100.255 148.135 83.9202 144.914 85.235 119.981C86.5498 95.0483 99.2527 89.0725 110.383 90.2413C121.514 91.41 133.382 99.9737 129.493 124.635Z" fill="#EB9481"/>
<path d="M124.36 120.106C123.796 119.925 123.302 119.668 122.753 119.411C122.155 119.255 121.627 118.905 121.25 118.416C121.159 118.239 121.13 118.036 121.168 117.841C121.206 117.645 121.308 117.468 121.459 117.338C121.79 117.12 122.173 116.997 122.569 116.98C122.964 116.963 123.357 117.053 123.706 117.24C124.475 117.506 125.117 118.049 125.507 118.764C125.591 118.932 125.623 119.122 125.6 119.309C125.577 119.495 125.5 119.671 125.377 119.814C125.255 119.957 125.093 120.061 124.912 120.113C124.731 120.165 124.539 120.163 124.36 120.106Z" fill="#263238"/>
<path d="M107.789 117.373C108.369 117.425 108.952 117.446 109.535 117.435C110.145 117.541 110.774 117.443 111.323 117.157C111.477 117.034 111.585 116.863 111.632 116.672C111.679 116.481 111.66 116.279 111.58 116.099C111.374 115.76 111.079 115.482 110.728 115.296C110.376 115.109 109.981 115.022 109.584 115.042C108.774 114.957 107.961 115.18 107.309 115.668C107.161 115.786 107.051 115.945 106.993 116.125C106.935 116.305 106.931 116.498 106.982 116.68C107.034 116.862 107.137 117.025 107.281 117.148C107.425 117.271 107.601 117.349 107.789 117.373Z" fill="#263238"/>
<path d="M110.008 123.063C110.008 122.994 109.862 123.112 109.848 123.181C109.528 124.865 108.874 126.743 107.232 126.959C107.176 126.959 107.163 127.056 107.232 127.056C109.131 127.209 109.973 124.712 110.008 123.063Z" fill="#263238"/>
<path d="M108.908 120.976C106.258 120.162 104.832 125.526 107.288 126.27C109.743 127.014 111.128 121.651 108.908 120.976Z" fill="#263238"/>
<path d="M107.782 120.976C107.232 121.156 106.627 121.567 106.05 121.476C105.472 121.386 105.034 120.676 104.756 120.022C104.756 119.953 104.665 120.022 104.644 120.057C104.359 121.08 104.471 122.242 105.535 122.687C106.599 123.132 107.462 122.374 107.991 121.407C108.088 121.233 107.984 120.906 107.782 120.976Z" fill="#263238"/>
<path d="M120.192 124.941C120.192 124.886 120.31 125.053 120.296 125.122C119.914 126.792 119.754 128.774 121.166 129.637C121.215 129.637 121.166 129.741 121.166 129.727C119.329 129.101 119.559 126.472 120.192 124.941Z" fill="#263238"/>
<path d="M122.042 123.48C124.825 123.8 123.941 129.282 121.395 128.983C118.849 128.684 119.739 123.209 122.042 123.48Z" fill="#263238"/>
<path d="M123.128 124.016C123.517 124.371 123.865 124.969 124.373 125.08C124.881 125.192 125.507 124.691 125.973 124.183C126.022 124.127 126.057 124.183 126.05 124.253C125.918 125.31 125.403 126.34 124.366 126.388C123.33 126.437 122.884 125.428 122.794 124.343C122.78 124.141 122.975 123.87 123.128 124.016Z" fill="#263238"/>
<path d="M107.593 136.426C107.865 136.934 108.087 137.581 108.672 137.818C109.284 137.993 109.926 138.04 110.557 137.957C110.569 137.957 110.581 137.96 110.592 137.966C110.602 137.973 110.611 137.982 110.616 137.993C110.621 138.004 110.623 138.017 110.621 138.029C110.619 138.041 110.614 138.052 110.606 138.061C110.27 138.309 109.874 138.461 109.459 138.503C109.044 138.545 108.626 138.474 108.247 138.298C107.94 138.106 107.696 137.827 107.548 137.496C107.399 137.165 107.352 136.798 107.413 136.44C107.42 136.35 107.552 136.35 107.593 136.426Z" fill="#263238"/>
<path d="M109.535 132.343C109.838 133.072 110.29 133.729 110.861 134.274C111.433 134.819 112.111 135.239 112.853 135.508C113.497 135.757 114.175 135.909 114.863 135.961C114.995 135.974 115.128 135.974 115.26 135.961C115.383 135.968 115.506 135.968 115.629 135.961C115.72 135.96 115.809 135.929 115.881 135.872C115.953 135.816 116.003 135.736 116.025 135.647C116.029 135.59 116.029 135.531 116.025 135.474V135.327C116.283 134.061 116.498 132.1 116.498 132.1C116.923 132.413 119.114 133.901 119.191 133.227C119.824 127.661 120.533 121.47 119.991 115.793C119.983 115.757 119.963 115.725 119.935 115.702C119.906 115.679 119.871 115.666 119.834 115.666C119.797 115.666 119.762 115.679 119.733 115.702C119.705 115.725 119.685 115.757 119.677 115.793C118.857 121.122 118.982 126.555 118.237 131.926C117.464 131.381 116.616 130.952 115.719 130.653C115.524 130.653 115.371 134.444 115.204 135.001C115.209 135.021 115.209 135.043 115.204 135.063C113.02 134.959 111.517 134.034 109.695 132.232C109.604 132.107 109.458 132.197 109.535 132.343Z" fill="#263238"/>
<path d="M85.7514 124.897C90.4421 126.363 93.4068 115.008 93.4068 115.008C93.4068 115.008 104.327 97.6253 118.753 97.6253C118.753 97.6253 125.23 107.078 130.459 116.224C130.459 116.224 132.672 96.9288 118.809 90.756C118.809 90.756 101.953 80.8516 89.5791 94.1137C77.2052 107.376 82.6197 123.93 85.7514 124.897Z" fill="#263238"/>
<path d="M95.2547 92.1789C96.9278 91.251 97.6005 80.5826 90.4432 76.4203C83.2859 72.258 75.37 78.9656 79.812 87.1053C82.612 92.2583 91.5385 94.1219 95.2547 92.1789Z" fill="#263238"/>
<path d="M81.0002 76.9396C79.2096 78.8787 78.1045 81.3845 77.8662 84.0459C77.73 85.2869 77.9111 86.5406 78.3912 87.6815C78.8714 88.8224 79.6338 89.8104 80.6022 90.5468C82.6577 92.0383 85.0712 92.9199 87.5842 93.0971C88.8627 93.2261 90.1508 93.2337 91.4325 93.12C92.7414 93.068 94.0307 92.759 95.2318 92.2096C94.1266 93.0241 92.8661 93.583 91.5367 93.8481C90.2137 94.1499 88.8627 94.2936 87.5104 94.2765C84.7164 94.3007 81.9927 93.4158 79.7244 91.7469C78.5616 90.8717 77.6651 89.6716 77.1386 88.2858C76.612 86.8999 76.4771 85.3849 76.7494 83.9165C76.9661 82.52 77.4547 81.1814 78.1854 79.9821C78.9162 78.7827 79.8738 77.7476 81.0002 76.9396Z" fill="#263238"/>
<path d="M88.0445 120.216C93.5818 122.155 101.307 104.011 102.228 101.796C101.703 103.23 98.9149 110.841 99.44 111.389C100.025 111.609 100.642 111.714 101.262 111.699C101.568 110.778 101.939 109.886 102.372 109.029C102.299 109.952 102.135 110.865 101.882 111.75L102.998 111.824C103.586 109.831 104.402 107.927 105.426 106.159C105.271 108.105 105.003 110.039 104.624 111.95C109.8 112.255 114.922 113.196 119.897 114.757C121.27 115.213 122.453 115.707 123.476 116.156C124.295 113.921 124.789 111.372 124.774 111.953C124.722 113.517 124.535 115.074 124.215 116.602L125.75 117.275C126.916 114.092 127.249 108.439 127.445 109.405C128.033 112.365 128.105 115.428 127.659 118.43C129.431 119.599 129.89 120.265 130.137 119.713C131.612 113.148 130.937 106.244 128.232 100.232C123.725 90.3762 110.651 83.2478 99.321 91.2964C99.321 91.2964 91.4837 93.4138 88.0491 100.447C84.6145 107.481 84.8245 119.098 88.0445 120.216Z" fill="#263238"/>
<path d="M117.083 98.8301C115.722 101.31 111.202 100.485 107.178 97.1605C103.154 93.836 101.061 89.2005 102.551 86.8151C104.041 84.4297 108.451 85.1738 112.474 88.4983C116.498 91.8228 118.567 96.409 117.083 98.8301Z" fill="#009CD9"/>
<path d="M115.806 96.9797C114.773 98.8622 111.315 98.2623 108.256 95.715C105.197 93.1677 103.618 89.6609 104.816 87.9006C106.014 86.1403 109.314 86.6538 112.354 89.1875C115.395 91.7212 116.901 95.1737 115.806 96.9797Z" fill="#263238"/>
<path d="M116.876 95.124L116.111 93.5603C117.5 92.7301 119.066 92.4573 120.565 92.7843C122.064 93.1113 123.41 94.0198 124.395 95.3679L123.257 96.6431C123.134 96.4902 120.055 92.8064 116.876 95.124Z" fill="#009CD9"/>
<path d="M84.1111 118.013C84.2569 117.748 86.868 111.302 87.4573 110.087C88.0467 108.873 104.72 92.7209 104.781 92.6101L105.099 93.4381L105.528 94.1603C104.559 95.0319 89.609 109.688 88.7942 110.984C87.9793 112.281 85.539 118.698 85.5208 118.778L84.1111 118.013Z" fill="#009CD9"/>
<path d="M134.879 104.231L134.561 103.403C134.541 103.439 132.79 105.146 130.408 107.483L130.655 109.478C133.075 107.099 134.982 105.246 135.308 104.953L134.879 104.231Z" fill="#009CD9"/>
<path d="M137.166 104.864C135.805 107.344 131.254 106.527 127.231 103.203C123.207 99.8781 121.132 95.2562 122.604 92.8572C124.075 90.4583 128.515 91.1938 132.539 94.5183C136.563 97.8427 138.607 102.473 137.166 104.864Z" fill="#009CD9"/>
<path d="M135.694 103.275C134.661 105.157 131.184 104.544 128.144 102.01C125.103 99.4762 123.506 95.9558 124.704 94.1955C125.902 92.4352 129.183 92.9351 132.242 95.4824C135.301 98.0296 136.862 101.336 135.694 103.275Z" fill="#263238"/>
<path d="M90.5911 123.654C90.5911 123.654 87.1754 114.778 83.2796 115.814C79.3839 116.851 80.6361 128.795 84.2953 131.293C84.7425 131.646 85.2563 131.904 85.8061 132.053C86.3558 132.202 86.93 132.239 87.4941 132.16C88.0582 132.081 88.6006 131.889 89.0886 131.596C89.5766 131.302 90.0001 130.913 90.3337 130.451L90.5911 123.654Z" fill="#EB9481"/>
<path d="M83.7392 119.216C83.6766 119.216 83.6418 119.279 83.6905 119.32C86.2297 121.164 87.0714 124.148 87.4401 127.126C86.8558 125.873 85.854 125.039 84.2053 125.665C84.1218 125.7 84.1635 125.832 84.247 125.839C84.7823 125.803 85.3156 125.934 85.773 126.215C86.2304 126.495 86.5893 126.911 86.8001 127.404C87.1515 128.231 87.4105 129.094 87.5723 129.978C87.6419 130.263 88.1358 130.242 88.108 129.922C88.111 129.899 88.111 129.876 88.108 129.853C89.068 126.284 87.5167 120.552 83.7392 119.216Z" fill="#263238"/>
<path opacity="0.1" d="M264.349 133.783C265.044 133.713 265.74 133.707 266.436 133.693C267.131 133.679 267.827 133.693 268.488 133.783C267.792 133.853 267.096 133.86 266.436 133.867C265.775 133.873 265.037 133.825 264.349 133.783Z" fill="#050400"/>
<path opacity="0.1" d="M264.349 134.715C265.044 134.646 265.74 134.639 266.436 134.625C267.131 134.611 267.827 134.625 268.488 134.715C267.792 134.785 267.096 134.792 266.436 134.799C265.775 134.806 265.037 134.785 264.349 134.715Z" fill="#050400"/>
<path opacity="0.1" d="M264.349 135.647C265.044 135.571 265.74 135.571 266.436 135.557C267.131 135.543 267.827 135.557 268.488 135.647C267.792 135.717 267.096 135.724 266.436 135.731C265.775 135.738 265.037 135.717 264.349 135.647Z" fill="#050400"/>
<path opacity="0.1" d="M264.349 136.607C265.044 136.531 265.74 136.531 266.436 136.517C267.131 136.503 267.827 136.517 268.488 136.607C267.792 136.677 267.096 136.684 266.436 136.691C265.775 136.698 265.037 136.649 264.349 136.607Z" fill="#050400"/>
<path opacity="0.1" d="M264.349 137.512C265.044 137.435 265.74 137.435 266.436 137.422C267.131 137.408 267.827 137.422 268.488 137.512C267.792 137.582 267.096 137.588 266.436 137.595C265.775 137.602 265.037 137.582 264.349 137.512Z" fill="#050400"/>
<path d="M130.357 279.37C130.357 270.552 137.506 263.403 146.324 263.403H237.996C246.814 263.403 253.962 270.552 253.962 279.37C253.962 288.188 246.814 295.336 237.996 295.336H146.324C137.506 295.336 130.357 288.188 130.357 279.37Z" fill="#EBEBEB"/>
<path d="M157.478 279.244C157.478 285.284 152.581 290.18 146.542 290.18C140.502 290.18 135.606 285.284 135.606 279.244C135.606 273.205 140.502 268.308 146.542 268.308C152.581 268.308 157.478 273.205 157.478 279.244Z" fill="#03A856"/>
<path d="M144.619 283.625L140.57 279.316L142.054 277.934L144.452 280.583L151.3 273.068L152.962 274.697L144.619 283.625Z" fill="#EBEBEB"/>
<path d="M235.398 274.956V273.266H244.282V274.956H240.84V284.4H238.84V274.956H235.398Z" fill="#03A856"/>
<path d="M232.771 273.266V284.4H230.977L225.731 276.816H225.638V284.4H223.621V273.266H225.426L230.667 280.855H230.765V273.266H232.771Z" fill="#03A856"/>
<path d="M213.402 284.4V273.266H220.644V274.956H215.419V277.979H220.269V279.67H215.419V282.709H220.688V284.4H213.402Z" fill="#03A856"/>
<path d="M198.609 273.266H201.077L204.383 281.334H204.513L207.819 273.266H210.287V284.4H208.352V276.751H208.248L205.171 284.368H203.725L200.647 276.734H200.544V284.4H198.609V273.266Z" fill="#03A856"/>
<path d="M186.149 273.266H188.427L191.151 278.191H191.259L193.983 273.266H196.261L192.211 280.246V284.4H190.199V280.246L186.149 273.266Z" fill="#03A856"/>
<path d="M177.479 284.4H175.326L179.246 273.266H181.736L185.661 284.4H183.508L180.534 275.549H180.447L177.479 284.4ZM177.549 280.034H183.421V281.655H177.549V280.034Z" fill="#03A856"/>
<path d="M166.518 284.4V273.266H170.694C171.549 273.266 172.267 273.425 172.847 273.744C173.43 274.063 173.871 274.501 174.168 275.06C174.469 275.614 174.619 276.245 174.619 276.952C174.619 277.666 174.469 278.3 174.168 278.855C173.867 279.409 173.423 279.846 172.836 280.165C172.249 280.48 171.525 280.638 170.666 280.638H167.899V278.98H170.395C170.895 278.98 171.304 278.893 171.623 278.719C171.942 278.545 172.178 278.305 172.33 278.001C172.486 277.697 172.564 277.347 172.564 276.952C172.564 276.557 172.486 276.209 172.33 275.908C172.178 275.607 171.941 275.373 171.618 275.206C171.299 275.036 170.888 274.951 170.384 274.951H168.535V284.4H166.518Z" fill="#03A856"/>
</g>
<defs>
<clipPath id="clip0_1_2105">
<rect width="327" height="327" fill="white" transform="translate(-13 -2)"/>
</clipPath>
</defs>
</svg>
