<svg width="311" height="324" viewBox="0 0 311 324" fill="none" xmlns="http://www.w3.org/2000/svg">
<g clip-path="url(#clip0_1_1929)">
<rect width="326" height="328" transform="translate(-4 -4)" fill="#64B3FF"/>
<path d="M149.987 348H266.794V193.848L149.987 193.848V348Z" fill="#536067"/>
<path d="M125.015 46.2048L156.019 68.9319L156.319 198.569H149.618V179.15L125.015 46.2048Z" fill="#263238"/>
<path d="M240.944 46.1733L244.62 68.9137H155.948L124.957 46.1733H240.944Z" fill="#263238"/>
<path d="M260.007 67.3877H155.989V200.036H260.007V67.3877Z" fill="#536067"/>
<path d="M248.235 118.229H167.867V215.722H248.235V118.229Z" fill="#263238"/>
<path d="M259.791 348H292.866V46.0754L239.677 46.0754L259.791 191.472V348Z" fill="#37474F"/>
<path d="M292.867 46.0754H266.794V348H292.867V46.0754Z" fill="#37474F"/>
<path opacity="0.2" d="M240.646 251.624H175.208V260.582H240.646V251.624Z" fill="#CECECE"/>
<path d="M238.012 254.469H177.841V257.711H238.012V254.469Z" fill="#263238"/>
<ellipse cx="206.61" cy="99.9357" rx="5.31898" ry="7.19002" fill="#263238"/>
<rect x="216.424" y="199.848" width="27.6791" height="9.22638" rx="4.61319" fill="#D1D1D1"/>
<rect x="193.87" y="147.566" width="27.6791" height="29.7294" rx="13.8396" fill="#D1D1D1"/>
<path d="M96.047 98.968C119.831 113.325 135.076 160.855 118.716 199.09C104.85 231.432 58.9828 247.621 34.9346 235.871C9.39401 223.384 5.97474 194.311 18.4428 176.893C31.3264 158.909 51.6343 158.21 58.4917 143.267C61.7787 136.108 60.5319 122.846 64.9335 112.078C69.8641 99.9882 83.8434 91.6572 96.047 98.968Z" fill="#263238"/>
<path d="M77.4209 99.528C79.31 98.2245 78.6299 85.7376 69.4111 81.8649C60.1923 77.9923 51.578 86.8521 58.0765 95.712C62.1759 101.323 73.2082 102.286 77.4209 99.528Z" fill="#263238"/>
<path d="M62.3079 121.732C61.9265 126.457 61.1364 131.141 59.9465 135.73C58.8095 140.422 56.6555 144.808 53.637 148.576C52.0122 150.381 50.0966 151.9 47.9697 153.072C45.9294 154.3 43.8325 155.433 41.7734 156.567C37.6175 158.752 33.5758 161.148 29.6643 163.745C25.7661 166.29 22.2107 169.325 19.0854 172.775C15.9954 176.252 13.6517 180.326 12.1992 184.746C10.7468 189.165 10.2165 193.835 10.6411 198.467C11.0289 203.158 11.9673 207.786 13.4369 212.257C11.6376 207.861 10.4122 203.252 9.79098 198.543C9.20307 193.767 9.58865 188.921 10.9244 184.299C12.3158 179.662 14.6865 175.378 17.8763 171.736C21.056 168.135 24.688 164.96 28.682 162.291C32.6583 159.688 36.7697 157.298 40.9989 155.131C43.0958 154.017 45.1738 152.921 47.1951 151.75C49.2118 150.659 51.0524 149.271 52.6546 147.631C55.6733 144.093 57.8903 139.942 59.1531 135.466C60.5279 130.968 61.5821 126.379 62.3079 121.732Z" fill="#263238"/>
<path d="M100.732 102.312C108.27 109.168 114.706 117.146 119.812 125.964C125.034 134.794 128.546 144.529 130.164 154.659C130.916 159.738 131.037 164.89 130.523 169.998C130.44 171.266 130.282 172.528 130.051 173.777C129.843 175.042 129.692 176.327 129.371 177.555C129.05 178.783 128.804 180.067 128.464 181.333L127.274 184.979C123.8 194.585 118.494 203.426 111.651 211.011C113.106 208.914 114.674 206.949 116.053 204.833C117.432 202.718 118.83 200.602 119.963 198.354C122.454 193.981 124.48 189.359 126.008 184.563C129.097 174.997 129.925 164.845 128.426 154.905C126.909 144.944 123.593 135.342 118.641 126.568C113.754 117.72 107.733 109.547 100.732 102.255V102.312Z" fill="#263238"/>
<path d="M58.133 83.7163C56.2511 86.2082 55.2719 89.2657 55.3561 92.3873C55.3653 93.8463 55.7575 95.2773 56.4935 96.5371C57.2295 97.7969 58.2834 98.8413 59.5499 99.5658C62.2279 101.021 65.2515 101.72 68.2964 101.587C69.8509 101.565 71.4001 101.4 72.9247 101.096C74.4905 100.86 75.9971 100.327 77.3641 99.5281C76.1493 100.622 74.7122 101.441 73.1514 101.927C71.6033 102.456 69.9996 102.804 68.3719 102.966C65.0173 103.37 61.6205 102.709 58.662 101.077C57.1426 100.218 55.8979 98.945 55.0721 97.4071C54.2463 95.8691 53.8731 94.1286 53.9959 92.3873C54.0618 90.737 54.4626 89.1174 55.1738 87.6268C55.885 86.1362 56.8918 84.8058 58.133 83.7163Z" fill="#263238"/>
<path d="M142.595 280.435L141.915 280.605C131.411 260.052 100.846 202.17 93.8181 168.468C91.929 159.854 92.8925 156.246 94.8949 155.566L142.595 280.435Z" fill="#263238"/>
<path d="M120.169 247.854C119.324 242.615 118.534 221.104 117.693 210.582C117.418 207.054 101.027 175.872 96.2022 163.453C91.6595 151.799 94.8689 149.817 104.03 156.658C113.192 163.499 137.133 194.384 142.291 203.585C147.448 212.785 155.439 249.096 154.208 257.369C153.343 262.998 121.005 253.002 120.169 247.854Z" fill="#EB9481"/>
<path d="M99.7016 176.489C99.7016 176.489 108.826 176.735 115.154 167.043C115.154 167.043 130.267 172.597 129.889 185.632C128.023 189.851 124.872 193.373 120.886 195.697C116.901 198.02 112.284 199.027 107.693 198.573C107.693 198.573 98.2848 194.87 99.7016 176.489Z" fill="#1683ED"/>
<path d="M100.335 184.223C99.9686 184.248 99.6172 184.381 99.3244 184.603C99.0316 184.826 98.8102 185.129 98.6872 185.476C98.5643 185.822 98.5453 186.197 98.6324 186.555C98.7196 186.912 98.9091 187.236 99.1778 187.487C99.4465 187.738 99.7827 187.906 100.145 187.969C100.508 188.031 100.88 187.987 101.218 187.841C101.555 187.695 101.843 187.453 102.045 187.146C102.248 186.839 102.356 186.48 102.357 186.112C102.357 185.852 102.305 185.595 102.201 185.357C102.098 185.119 101.947 184.904 101.758 184.727C101.568 184.55 101.344 184.413 101.099 184.327C100.854 184.24 100.594 184.205 100.335 184.223ZM113.767 182.239C113.251 182.264 112.765 182.489 112.412 182.866C112.059 183.244 111.867 183.744 111.878 184.26C111.878 184.784 112.086 185.286 112.456 185.656C112.826 186.027 113.328 186.235 113.852 186.235C114.376 186.235 114.878 186.027 115.248 185.656C115.618 185.286 115.826 184.784 115.826 184.26C115.839 183.985 115.795 183.709 115.697 183.452C115.599 183.194 115.448 182.959 115.255 182.762C115.061 182.565 114.829 182.41 114.573 182.307C114.317 182.204 114.043 182.155 113.767 182.164V182.239ZM123.515 188.605C123.148 188.631 122.796 188.763 122.504 188.986C122.211 189.209 121.989 189.512 121.866 189.859C121.744 190.205 121.724 190.58 121.812 190.937C121.899 191.295 122.088 191.619 122.357 191.87C122.626 192.121 122.962 192.288 123.324 192.351C123.687 192.414 124.06 192.37 124.397 192.224C124.735 192.078 125.022 191.836 125.225 191.529C125.427 191.222 125.535 190.862 125.536 190.495C125.547 190.229 125.502 189.963 125.404 189.716C125.306 189.469 125.156 189.245 124.965 189.06C124.774 188.874 124.547 188.731 124.297 188.64C124.047 188.548 123.78 188.511 123.515 188.53V188.605ZM109.101 193.517C108.841 193.516 108.584 193.569 108.346 193.672C108.108 193.775 107.893 193.927 107.716 194.116C107.539 194.306 107.403 194.53 107.316 194.775C107.229 195.019 107.194 195.279 107.212 195.538C107.212 196.062 107.42 196.564 107.79 196.934C108.16 197.305 108.662 197.513 109.186 197.513C109.709 197.513 110.212 197.305 110.582 196.934C110.952 196.564 111.16 196.062 111.16 195.538C111.192 195.258 111.162 194.975 111.07 194.708C110.979 194.442 110.829 194.199 110.631 193.998C110.434 193.797 110.194 193.643 109.929 193.546C109.664 193.45 109.381 193.414 109.101 193.442V193.517Z" fill="white"/>
<path d="M60.5734 232.866C60.5734 232.866 75.5617 328.3 76.1853 334.285H140.56C137.329 309.534 116.583 232.866 116.583 232.866H60.5734Z" fill="#263238"/>
<path d="M89.0701 270.231H74.1606C74.1606 270.231 84.5141 308.289 91.6107 334.528H95.6341L89.0701 270.231Z" fill="#455A64"/>
<path d="M89.6885 334.366C98.231 324.64 113.491 232.736 113.491 232.736L47.3625 232.794C47.3625 232.794 36.5563 240.63 36.5563 289.511C36.5563 315.198 36.5563 320.455 34.6117 334.366H89.6885Z" fill="#263238"/>
<path d="M98.3488 271.812C98.412 269.392 98.5844 266.973 98.7108 264.553C98.9981 258.819 99.2222 253.085 99.7624 247.392C99.7624 247.345 99.7811 247.3 99.8145 247.266C99.8479 247.233 99.8932 247.214 99.9405 247.214C99.9877 247.214 100.033 247.233 100.066 247.266C100.1 247.3 100.119 247.345 100.119 247.392C100.193 251.813 100.021 256.245 99.929 260.666C99.883 262.873 99.8198 265.086 99.7566 267.3C99.635 269.409 99.6197 271.524 99.7106 273.635C99.8313 275.229 100.188 278.326 102.302 278.521C104.29 278.698 105.382 276.583 105.882 275.034C107.14 271.101 107.606 266.852 107.996 262.758C108.244 260.333 109.014 250.471 108.876 248.023C108.876 247.862 109.117 247.868 109.128 248.023C109.266 250.517 109.404 260.551 109.243 263.039C109.082 265.425 108.881 267.821 108.514 270.189C108.266 272.349 107.743 274.469 106.956 276.496C106.221 278.171 105.348 279.656 103.434 280.023C103.201 280.068 102.965 280.091 102.727 280.092C102.727 280.608 102.635 281.124 102.595 281.628C102.538 282.431 102.44 283.228 102.331 284.025C102.215 284.8 102.048 285.566 101.831 286.318C101.66 287.091 101.382 287.836 101.004 288.532C100.989 288.553 100.967 288.569 100.943 288.578C100.918 288.587 100.891 288.588 100.866 288.581C100.841 288.574 100.819 288.56 100.802 288.54C100.785 288.519 100.776 288.495 100.774 288.469C100.757 287.699 100.823 286.931 100.969 286.175C101.078 285.395 101.187 284.61 101.348 283.841C101.509 283.073 101.653 282.322 101.814 281.548C101.917 281.043 101.992 280.522 102.084 280.006C101.47 279.903 100.891 279.65 100.399 279.268C99.9077 278.887 99.519 278.39 99.2682 277.821C98.3718 276.038 98.2971 273.836 98.3488 271.812Z" fill="#455A64"/>
<path d="M38.0537 270.333C41.5558 270.573 45.0123 271.021 48.5258 270.608C51.8354 270.279 54.9943 269.057 57.6668 267.071C63.4428 262.633 65.9737 255.381 67.5391 248.576C67.548 248.547 67.5666 248.523 67.5918 248.507C67.617 248.491 67.647 248.484 67.6765 248.488C67.706 248.492 67.7331 248.507 67.7529 248.529C67.7728 248.552 67.784 248.58 67.7848 248.61C67.1335 254.509 65.848 260.615 61.9974 265.368C60.3322 267.461 58.2376 269.17 55.8558 270.378C53.3112 271.545 50.5338 272.11 47.7374 272.03C44.4588 272.001 41.1963 271.564 38.0251 270.728C37.9786 270.717 37.9374 270.69 37.909 270.652C37.8806 270.613 37.8669 270.566 37.8704 270.518C37.8738 270.47 37.8942 270.425 37.9278 270.391C37.9615 270.357 38.0061 270.336 38.0537 270.333Z" fill="#455A64"/>
<path d="M107.185 287.071C104.707 288.599 102.086 289.881 99.3596 290.9C96.6924 292.003 93.9677 292.96 91.1975 293.769C91.1819 293.775 91.1684 293.786 91.1589 293.799C91.1494 293.813 91.1443 293.829 91.1443 293.846C91.1443 293.863 91.1494 293.879 91.1589 293.893C91.1684 293.906 91.1819 293.917 91.1975 293.923C93.9114 293.167 96.6559 292.636 99.3596 291.707C99.1351 292.616 99.0127 293.555 98.8698 294.464C98.6658 295.628 98.4822 296.802 98.3087 297.976C97.9516 300.335 97.6455 302.693 97.2884 305.042C96.6457 309.759 95.9723 314.466 95.35 319.183C94.9929 321.807 94.6562 324.442 94.4317 327.076C94.4317 327.188 94.6052 327.209 94.6256 327.076C95.554 322.42 96.1866 317.713 96.8803 313.016C97.5741 308.319 98.3393 303.623 98.9209 298.916C99.1045 297.568 99.2881 296.22 99.4514 294.831C99.6213 293.722 99.7303 292.604 99.7779 291.482H99.8289C102.531 290.491 105.043 289.044 107.256 287.204C107.399 287.163 107.267 287 107.185 287.071Z" fill="#455A64"/>
<path d="M115.713 217.018L116.431 232.867C93.6852 237.612 70.2052 237.612 47.4597 232.867C47.4597 232.867 47.7998 179.973 68.1265 159.193C78.2898 148.803 89.8322 149.955 96.973 157.643C98.8621 159.533 120.133 185.867 122.155 197.163C123.893 207.1 115.713 217.018 115.713 217.018Z" fill="#EB9481"/>
<path d="M115.713 217.018L116.431 232.867C93.6852 237.612 70.2052 237.612 47.4597 232.867C47.4597 232.867 47.7998 179.973 68.1265 159.193C78.2898 148.803 89.8322 149.955 96.973 157.643C98.8621 159.533 120.133 185.867 122.155 197.163C123.893 207.1 115.713 217.018 115.713 217.018Z" fill="#EB9481"/>
<path d="M115.712 217.018C90.8896 223.837 63.3844 219.625 48.4983 216.319C40.5641 210.651 53.3155 182.579 61.3441 168.411C65.8591 170.584 85.7891 178.745 98.7105 175.722C101.994 174.986 104.993 173.312 107.344 170.905C113.804 179.727 121.021 190.797 122.154 197.144C123.892 207.1 115.712 217.018 115.712 217.018Z" fill="#1683ED"/>
<path d="M100.429 201.867C100.951 201.867 101.45 202.074 101.819 202.443C102.187 202.811 102.394 203.311 102.394 203.832C102.394 204.353 102.187 204.853 101.819 205.221C101.45 205.59 100.951 205.797 100.429 205.797C99.9084 205.797 99.4087 205.59 99.0403 205.221C98.6718 204.853 98.4648 204.353 98.4648 203.832C98.4648 203.311 98.6718 202.811 99.0403 202.443C99.4087 202.074 99.9084 201.867 100.429 201.867ZM91.7585 215.091C91.7579 215.351 91.8108 215.608 91.9139 215.846C92.0169 216.084 92.1681 216.299 92.3577 216.476C92.5474 216.653 92.7716 216.789 93.0162 216.876C93.2609 216.963 93.5209 216.998 93.7799 216.98C94.2943 216.951 94.7778 216.725 95.1296 216.348C95.4815 215.972 95.6746 215.474 95.669 214.959C95.6696 214.699 95.6167 214.442 95.5136 214.204C95.4105 213.966 95.2594 213.751 95.0697 213.574C94.8801 213.397 94.6559 213.261 94.4112 213.174C94.1665 213.087 93.9066 213.052 93.6476 213.07C93.388 213.069 93.1311 213.122 92.8928 213.225C92.6545 213.328 92.4401 213.479 92.2628 213.669C92.0855 213.859 91.9493 214.083 91.8625 214.328C91.7757 214.572 91.7403 214.832 91.7585 215.091ZM82.0863 206.382C82.1014 206.906 82.3238 207.402 82.7046 207.762C83.0855 208.121 83.5935 208.315 84.1171 208.3C84.6407 208.285 85.1368 208.062 85.4964 207.682C85.856 207.301 86.0496 206.793 86.0345 206.269C86.0352 206.009 85.9823 205.752 85.8792 205.514C85.7761 205.276 85.625 205.062 85.4353 204.884C85.2457 204.707 85.0215 204.571 84.7768 204.484C84.5321 204.397 84.2722 204.362 84.0132 204.38C83.7521 204.374 83.4927 204.423 83.2513 204.522C83.01 204.622 82.7918 204.771 82.6108 204.959C82.4297 205.147 82.2896 205.371 82.1993 205.616C82.1091 205.861 82.0706 206.122 82.0863 206.382ZM73.302 215.526C73.3082 215.785 73.3654 216.04 73.4704 216.277C73.5753 216.515 73.7259 216.729 73.9136 216.908C74.1013 217.087 74.3224 217.227 74.5643 217.32C74.8062 217.414 75.0641 217.459 75.3234 217.453C75.5826 217.446 75.8381 217.389 76.0752 217.284C76.3124 217.179 76.5265 217.029 76.7054 216.841C76.8844 216.653 77.0246 216.432 77.118 216.19C77.2115 215.948 77.2565 215.69 77.2502 215.431C77.2211 214.917 76.9948 214.433 76.6183 214.081C76.2418 213.73 75.7442 213.536 75.2289 213.542C74.9695 213.537 74.7118 213.585 74.4717 213.683C74.2317 213.782 74.0145 213.928 73.8337 214.114C73.6529 214.301 73.5124 214.522 73.421 214.765C73.3295 215.008 73.289 215.267 73.302 215.526ZM66.3312 205.853C66.3306 206.113 66.3835 206.37 66.4866 206.608C66.5897 206.847 66.7408 207.061 66.9305 207.238C67.1201 207.416 67.3443 207.552 67.589 207.639C67.8337 207.725 68.0936 207.761 68.3526 207.743C68.8761 207.743 69.3783 207.535 69.7485 207.164C70.1187 206.794 70.3267 206.292 70.3267 205.768C70.3267 205.245 70.1187 204.743 69.7485 204.373C69.3783 204.002 68.8761 203.794 68.3526 203.794C68.0786 203.774 67.8036 203.814 67.5465 203.91C67.2894 204.007 67.0565 204.159 66.8641 204.355C66.6717 204.551 66.5243 204.787 66.4323 205.045C66.3402 205.304 66.3058 205.58 66.3312 205.853ZM56.8858 213.561C56.9149 214.075 57.1412 214.559 57.5177 214.911C57.8942 215.263 58.3918 215.456 58.9071 215.45C59.274 215.424 59.6254 215.292 59.9182 215.069C60.211 214.847 60.4324 214.544 60.5553 214.197C60.6782 213.85 60.6973 213.475 60.6102 213.118C60.523 212.761 60.3335 212.437 60.0647 212.185C59.796 211.934 59.4598 211.767 59.0975 211.704C58.7351 211.641 58.3622 211.686 58.0247 211.832C57.6871 211.978 57.3995 212.219 57.1972 212.527C56.9949 212.834 56.8867 213.193 56.8858 213.561ZM51.2185 204.399C51.2247 204.658 51.2819 204.914 51.3868 205.151C51.4918 205.388 51.6424 205.602 51.8301 205.781C52.0178 205.96 52.2389 206.1 52.4808 206.194C52.7226 206.287 52.9806 206.332 53.2398 206.326C53.499 206.32 53.7545 206.262 53.9917 206.157C54.2288 206.052 54.4429 205.902 54.6219 205.714C54.8008 205.526 54.941 205.305 55.0345 205.063C55.128 204.822 55.1729 204.564 55.1667 204.304C55.1542 203.781 54.9342 203.284 54.5551 202.922C54.176 202.561 53.6689 202.365 53.1453 202.377C52.6218 202.39 52.1246 202.61 51.7633 202.989C51.4019 203.368 51.2059 203.875 51.2185 204.399ZM58.7749 195.86C58.797 196.228 58.9263 196.582 59.1468 196.877C59.3674 197.172 59.6696 197.397 60.0161 197.523C60.3627 197.648 60.7384 197.67 61.0971 197.585C61.4558 197.5 61.7817 197.311 62.0347 197.043C62.2876 196.775 62.4566 196.439 62.5208 196.076C62.585 195.713 62.5415 195.339 62.3958 195C62.2501 194.661 62.0085 194.373 61.7008 194.17C61.393 193.967 61.0326 193.858 60.664 193.858C60.4108 193.865 60.1618 193.923 59.9315 194.028C59.7012 194.133 59.4945 194.284 59.3235 194.471C59.1526 194.658 59.021 194.877 58.9364 195.115C58.8519 195.354 58.8162 195.607 58.8315 195.86H58.7749ZM53.6176 185.187C53.6397 185.555 53.7691 185.908 53.9896 186.204C54.2102 186.499 54.5123 186.723 54.8589 186.849C55.2054 186.975 55.5812 186.997 55.9399 186.911C56.2985 186.826 56.6245 186.638 56.8774 186.37C57.1304 186.102 57.2994 185.765 57.3636 185.402C57.4278 185.039 57.3843 184.665 57.2386 184.327C57.0929 183.988 56.8512 183.699 56.5435 183.496C56.2358 183.293 55.8754 183.185 55.5067 183.184C55.2536 183.191 55.0045 183.249 54.7743 183.355C54.544 183.46 54.3372 183.611 54.1663 183.797C53.9954 183.984 53.8637 184.203 53.7792 184.442C53.6947 184.681 53.659 184.934 53.6743 185.187H53.6176ZM107.174 195.558C107.174 196.081 107.382 196.584 107.752 196.954C108.122 197.324 108.624 197.532 109.148 197.532C109.671 197.532 110.173 197.324 110.544 196.954C110.914 196.584 111.122 196.081 111.122 195.558C111.122 195.034 110.914 194.532 110.544 194.162C110.173 193.792 109.671 193.584 109.148 193.584C108.624 193.584 108.122 193.792 107.752 194.162C107.382 194.532 107.174 195.034 107.174 195.558ZM108.439 212.276C108.452 212.8 108.672 213.297 109.051 213.658C109.43 214.02 109.937 214.216 110.461 214.203C110.984 214.191 111.481 213.971 111.843 213.592C112.204 213.213 112.4 212.705 112.387 212.182C112.388 211.922 112.335 211.665 112.232 211.427C112.129 211.189 111.978 210.974 111.788 210.797C111.599 210.62 111.374 210.484 111.13 210.397C110.885 210.31 110.625 210.275 110.366 210.293C110.115 210.288 109.865 210.333 109.632 210.426C109.398 210.518 109.185 210.657 109.006 210.833C108.826 211.009 108.684 211.218 108.587 211.45C108.489 211.682 108.439 211.931 108.439 212.182V212.276ZM116.506 202.925C116.505 203.185 116.558 203.442 116.661 203.68C116.764 203.918 116.915 204.133 117.105 204.31C117.295 204.487 117.519 204.624 117.763 204.71C118.008 204.797 118.268 204.833 118.527 204.814C118.894 204.789 119.245 204.656 119.538 204.434C119.831 204.211 120.052 203.908 120.175 203.561C120.298 203.215 120.317 202.84 120.23 202.482C120.143 202.125 119.953 201.801 119.685 201.55C119.416 201.299 119.08 201.131 118.717 201.069C118.355 201.006 117.982 201.05 117.645 201.196C117.307 201.342 117.019 201.584 116.817 201.891C116.615 202.198 116.507 202.558 116.506 202.925ZM103.66 175.647C103.66 176.17 103.868 176.672 104.238 177.043C104.608 177.413 105.11 177.621 105.634 177.621C106.158 177.621 106.66 177.413 107.03 177.043C107.4 176.672 107.608 176.17 107.608 175.647C107.609 175.387 107.556 175.13 107.453 174.892C107.35 174.654 107.199 174.439 107.009 174.262C106.819 174.085 106.595 173.948 106.35 173.862C106.106 173.775 105.846 173.74 105.587 173.758C105.102 173.769 104.638 173.958 104.283 174.289C103.927 174.62 103.706 175.069 103.66 175.552V175.647ZM111.84 184.28C111.84 184.804 112.048 185.306 112.418 185.676C112.788 186.046 113.29 186.254 113.814 186.254C114.337 186.254 114.839 186.046 115.21 185.676C115.58 185.306 115.788 184.804 115.788 184.28C115.788 183.756 115.58 183.254 115.21 182.884C114.839 182.514 114.337 182.306 113.814 182.306C113.29 182.306 112.788 182.514 112.418 182.884C112.048 183.254 111.84 183.756 111.84 184.28ZM90.2283 195.955C90.2505 196.323 90.3798 196.676 90.6003 196.971C90.8209 197.267 91.1231 197.491 91.4696 197.617C91.8162 197.743 92.1919 197.764 92.5506 197.679C92.9093 197.594 93.2352 197.406 93.4882 197.138C93.7411 196.869 93.9101 196.533 93.9743 196.17C94.0385 195.807 93.995 195.433 93.8493 195.095C93.7036 194.756 93.462 194.467 93.1542 194.264C92.8465 194.061 92.4861 193.953 92.1174 193.952C91.8678 193.952 91.6206 194.002 91.3901 194.098C91.1597 194.194 90.9506 194.335 90.7749 194.512C90.5993 194.69 90.4605 194.9 90.3667 195.131C90.2729 195.363 90.2258 195.61 90.2283 195.86V195.955ZM90.2283 179.274C90.2541 179.641 90.3864 179.992 90.609 180.285C90.8316 180.578 91.1348 180.799 91.4815 180.922C91.8281 181.045 92.2031 181.064 92.5604 180.977C92.9177 180.89 93.2419 180.7 93.493 180.431C93.7441 180.163 93.9114 179.827 93.9742 179.464C94.037 179.102 93.9926 178.729 93.8466 178.391C93.7005 178.054 93.4591 177.766 93.1519 177.564C92.8448 177.362 92.4852 177.253 92.1174 177.253C91.8662 177.252 91.6174 177.303 91.3857 177.4C91.154 177.497 90.944 177.64 90.7681 177.819C90.5922 177.999 90.4538 178.211 90.3612 178.445C90.2685 178.678 90.2233 178.928 90.2283 179.179V179.274ZM75.2667 195.841C75.2924 196.208 75.4247 196.56 75.6473 196.852C75.8699 197.145 76.1732 197.367 76.5198 197.489C76.8664 197.612 77.2414 197.631 77.5988 197.544C77.9561 197.457 78.2802 197.268 78.5313 196.999C78.7825 196.73 78.9497 196.394 79.0125 196.032C79.0753 195.669 79.031 195.296 78.8849 194.959C78.7388 194.621 78.4974 194.334 78.1903 194.131C77.8831 193.929 77.5236 193.821 77.1558 193.82C76.9045 193.82 76.6557 193.87 76.424 193.967C76.1923 194.065 75.9824 194.207 75.8065 194.386C75.6305 194.566 75.4922 194.779 75.3995 195.012C75.3068 195.246 75.2617 195.496 75.2667 195.747V195.841ZM66.3312 187.794C66.3438 188.317 66.5638 188.814 66.9429 189.176C67.3219 189.537 67.829 189.733 68.3526 189.721C68.8761 189.708 69.3733 189.488 69.7347 189.109C70.096 188.73 70.292 188.223 70.2795 187.699C70.255 187.183 70.03 186.697 69.6525 186.344C69.275 185.991 68.7747 185.8 68.2581 185.81C68.0069 185.805 67.7572 185.85 67.5236 185.943C67.29 186.036 67.0773 186.174 66.8979 186.35C66.7184 186.526 66.5759 186.736 66.4786 186.967C66.3813 187.199 66.3312 187.448 66.3312 187.699V187.794ZM61.174 175.401C61.1734 175.661 61.2263 175.918 61.3294 176.156C61.4325 176.394 61.5836 176.609 61.7732 176.786C61.9629 176.963 62.1871 177.1 62.4318 177.186C62.6764 177.273 62.9364 177.308 63.1954 177.29C63.5622 177.265 63.9136 177.132 64.2064 176.91C64.4992 176.687 64.7207 176.384 64.8436 176.037C64.9665 175.691 64.9856 175.316 64.8984 174.958C64.8113 174.601 64.6217 174.277 64.353 174.026C64.0843 173.775 63.7481 173.607 63.3857 173.544C63.0233 173.482 62.6505 173.526 62.3129 173.672C61.9754 173.818 61.6878 174.06 61.4855 174.367C61.2832 174.674 61.1749 175.033 61.174 175.401ZM82.9553 187.397C82.9547 187.657 83.0076 187.914 83.1107 188.152C83.2138 188.39 83.3649 188.605 83.5545 188.782C83.7442 188.959 83.9684 189.095 84.2131 189.182C84.4577 189.269 84.7177 189.304 84.9767 189.286C85.5002 189.286 86.0023 189.078 86.3726 188.708C86.7428 188.338 86.9508 187.836 86.9508 187.312C86.9508 186.788 86.7428 186.286 86.3726 185.916C86.0023 185.546 85.5002 185.338 84.9767 185.338C84.7112 185.319 84.4447 185.356 84.1948 185.448C83.9448 185.539 83.7169 185.682 83.526 185.868C83.3352 186.053 83.1857 186.277 83.0874 186.524C82.989 186.771 82.944 187.037 82.9553 187.303V187.397ZM98.427 186.264C98.4528 186.63 98.5851 186.982 98.8077 187.275C99.0303 187.567 99.3335 187.789 99.6801 187.912C100.027 188.035 100.402 188.054 100.759 187.967C101.116 187.879 101.441 187.69 101.692 187.421C101.943 187.152 102.11 186.816 102.173 186.454C102.236 186.091 102.191 185.719 102.045 185.381C101.899 185.044 101.658 184.756 101.351 184.554C101.043 184.351 100.684 184.243 100.316 184.242C99.8184 184.242 99.3407 184.439 98.987 184.789C98.6332 185.139 98.432 185.615 98.427 186.112V186.264ZM73.6421 178.367C73.6678 178.734 73.8001 179.085 74.0227 179.378C74.2453 179.671 74.5485 179.892 74.8952 180.015C75.2418 180.138 75.6168 180.157 75.9741 180.07C76.3315 179.983 76.6556 179.793 76.9067 179.525C77.1578 179.256 77.3251 178.92 77.3879 178.557C77.4507 178.195 77.4063 177.822 77.2603 177.485C77.1142 177.147 76.8728 176.86 76.5656 176.657C76.2585 176.455 75.899 176.347 75.5312 176.346C75.2716 176.345 75.0146 176.398 74.7763 176.501C74.5381 176.604 74.3236 176.755 74.1463 176.945C73.9691 177.135 73.8328 177.359 73.7461 177.603C73.6593 177.848 73.6239 178.108 73.6421 178.367Z" fill="white"/>
<path d="M112.898 178.31C111.727 176.61 110.575 174.91 109.403 173.229L108.572 171.245C108.175 170.32 107.703 169.356 107.25 168.525C107.25 168.525 107.099 168.525 107.118 168.525C107.476 169.469 107.816 170.414 108.232 171.34C108.303 171.468 108.366 171.601 108.421 171.736C107.118 169.847 105.776 167.958 104.378 166.069C104.374 166.048 104.365 166.028 104.351 166.011C104.338 165.995 104.32 165.981 104.301 165.973C104.281 165.964 104.259 165.961 104.238 165.963C104.216 165.964 104.196 165.971 104.178 165.983C104.159 165.995 104.144 166.01 104.134 166.029C104.123 166.048 104.117 166.069 104.116 166.09C104.116 166.112 104.12 166.133 104.13 166.152C104.139 166.172 104.153 166.189 104.171 166.201C108.27 173.134 112.936 179.765 117.394 186.528C119.492 189.433 120.971 192.738 121.739 196.238C122.276 199.645 122.05 203.129 121.078 206.439C120.537 208.289 119.842 210.09 119 211.823C118.18 213.662 117.119 215.384 115.845 216.942C115.83 216.958 115.819 216.977 115.812 216.998C115.805 217.018 115.802 217.04 115.804 217.062C115.807 217.084 115.814 217.105 115.825 217.123C115.836 217.142 115.851 217.158 115.869 217.171C115.887 217.183 115.907 217.192 115.929 217.195C115.95 217.199 115.972 217.198 115.993 217.193C116.014 217.187 116.034 217.177 116.051 217.163C116.068 217.149 116.081 217.132 116.091 217.112C117.111 215.639 118.263 214.335 119.189 212.805C120.067 211.364 120.813 209.847 121.418 208.271C122.644 205.146 123.216 201.803 123.099 198.448C122.759 190.722 117.186 184.45 112.898 178.31Z" fill="#263238"/>
<path d="M72.9665 185.291C71.0406 190.147 68.7906 194.869 66.2317 199.424C66.0962 199.527 65.8845 199.498 65.9629 199.32C67.9473 194.478 70.2621 189.778 72.8907 185.253C72.8907 185.253 72.9738 185.238 72.9665 185.291Z" fill="#263238"/>
<path d="M80.1603 157.889C80.7649 159.249 89.3225 167.221 95.7832 165.672C97.8801 165.162 95.6321 153.582 95.6321 153.582V152.675L96.0477 140.169L80.2359 133.803L77.969 132.99C77.969 132.99 78.0823 136.41 78.2712 140.679C78.2712 140.887 78.2712 141.076 78.2712 141.284C78.2712 141.491 78.2712 141.756 78.2712 141.983C78.2712 142.625 78.2712 143.267 78.2712 143.872C78.2712 144.476 78.2712 144.835 78.2712 145.364L78.3846 146.894C78.7194 150.596 79.3128 154.27 80.1603 157.889Z" fill="#EB9481"/>
<path d="M78.3082 140.774C80.1551 143.916 82.6653 146.617 85.6638 148.689C88.6623 150.761 92.0768 152.154 95.6691 152.77L96.0847 140.264L80.2729 133.898L78.006 133.085C78.006 133.085 78.1193 136.41 78.3082 140.774Z" fill="#263238"/>
<path d="M110.839 120.938C113.842 142.682 101.148 146.951 96.4628 147.593C92.2123 148.179 77.5718 149.615 72.3957 128.287C67.2195 106.959 76.325 98.6845 85.9972 96.8332C95.6694 94.9819 107.835 99.2135 110.839 120.938Z" fill="#EB9481"/>
<path d="M106.003 116.423C105.493 116.423 105.002 116.423 104.492 116.31C103.952 116.353 103.413 116.213 102.962 115.913C102.84 115.791 102.763 115.631 102.743 115.46C102.722 115.289 102.759 115.116 102.848 114.969C103.063 114.682 103.354 114.463 103.689 114.336C104.023 114.209 104.387 114.179 104.737 114.251C105.439 114.258 106.113 114.528 106.626 115.006C106.744 115.125 106.824 115.276 106.854 115.44C106.885 115.605 106.865 115.774 106.798 115.927C106.731 116.08 106.619 116.21 106.477 116.298C106.335 116.386 106.17 116.43 106.003 116.423Z" fill="#263238"/>
<path d="M91.6833 118.558C92.1933 118.426 92.6278 118.218 93.119 118.048C93.6423 117.93 94.113 117.645 94.4602 117.236C94.5467 117.086 94.5807 116.912 94.5568 116.741C94.5328 116.569 94.4523 116.411 94.328 116.291C94.0578 116.096 93.7407 115.975 93.4089 115.942C93.0771 115.909 92.7424 115.964 92.4389 116.102C91.7609 116.301 91.1814 116.745 90.8143 117.349C90.7419 117.486 90.7092 117.64 90.7197 117.794C90.7303 117.949 90.7837 118.097 90.874 118.223C90.9643 118.349 91.0879 118.446 91.2309 118.506C91.3739 118.565 91.5306 118.583 91.6833 118.558Z" fill="#263238"/>
<path d="M95.3484 123.639C95.3484 123.639 95.2351 123.639 95.3484 123.791C95.6318 125.264 95.7074 126.983 94.4606 127.701C95.9907 127.285 95.8585 124.981 95.3484 123.639Z" fill="#263238"/>
<path d="M93.7806 122.317C91.3815 122.525 91.8915 127.324 94.1962 127.116C96.5009 126.908 95.7831 122.147 93.7806 122.317Z" fill="#263238"/>
<path d="M92.8737 122.695C92.477 123.016 92.1369 123.545 91.6269 123.658C91.1168 123.772 90.5501 123.337 90.1156 122.903C90.1156 123.828 90.6823 124.792 91.6836 124.792C92.6848 124.792 93.1382 123.923 93.2515 122.903C93.1948 122.789 93.0248 122.563 92.8737 122.695Z" fill="#263238"/>
<path d="M103.868 122.242C103.868 122.242 104 122.242 104 122.355C104.133 123.847 104.51 125.529 105.889 125.869C104.265 125.925 103.868 123.772 103.868 122.242Z" fill="#263238"/>
<path d="M105.04 120.542C107.401 120.088 108.138 124.849 105.946 125.283C103.755 125.718 103.056 120.919 105.04 120.542Z" fill="#263238"/>
<path d="M106.078 120.693C106.493 120.9 106.947 121.297 107.4 121.259C107.853 121.222 108.231 120.636 108.477 120.088C108.477 120.088 108.477 120.088 108.571 120.088C108.741 120.995 108.571 121.977 107.74 122.298C106.909 122.62 106.248 121.902 105.851 121.014C105.756 120.9 105.908 120.617 106.078 120.693Z" fill="#263238"/>
<path d="M97.2934 135.484C97.6901 135.805 98.0868 136.259 98.6158 136.259C99.1734 136.208 99.714 136.041 100.203 135.768C100.007 136.086 99.7265 136.342 99.3927 136.509C99.0589 136.676 98.6851 136.746 98.3135 136.712C98.0003 136.662 97.7098 136.517 97.4805 136.298C97.2511 136.079 97.0937 135.795 97.0289 135.484C97.0289 135.484 97.2367 135.447 97.2934 135.484Z" fill="#263238"/>
<path d="M154.025 250.231C154.624 264.428 156.163 282.01 149.501 296.32C148.79 297.923 147.625 299.219 146.189 300.003C143.261 306.448 139.744 306.893 139.744 306.893C135.412 311.988 131.713 311.868 131.713 311.868C131.713 311.868 128.247 319.411 123.861 317.862C118.927 316.172 124.758 305.818 124.906 298.094C125.235 280.232 121.292 252.13 120.929 246.969L154.025 250.231Z" fill="#EB9481"/>
<path d="M136.959 279.558C136.921 284.787 136.559 290.009 135.877 295.188C134.828 300.781 133.403 306.28 131.614 311.638C131.61 311.671 131.615 311.704 131.63 311.733C131.644 311.762 131.666 311.785 131.694 311.798C131.721 311.811 131.751 311.814 131.78 311.805C131.808 311.797 131.834 311.779 131.852 311.753C136.222 301.722 138.064 290.563 137.177 279.49C137.116 279.307 136.969 279.287 136.959 279.558Z" fill="#263238"/>
<path d="M146.584 278.128C146.141 283.23 145.329 292.197 139.544 306.84C139.544 306.84 139.54 306.946 139.625 306.843C144.349 298.176 146.834 288.224 146.8 278.106C146.837 277.82 146.596 277.781 146.584 278.128Z" fill="#263238"/>
<path d="M151.819 277.459C150.776 286.116 149.141 291.431 146.153 299.896C146.153 299.896 146.149 300.002 146.234 299.899C150.532 290.576 151.16 286.659 152.093 277.333C152.113 277.138 151.858 277.128 151.819 277.459Z" fill="#263238"/>
<path d="M124.09 276.559C123.313 274.221 122.207 274.663 121.001 278.922C119.795 283.18 118.199 301.101 112.665 300.008C107.131 298.916 110.733 273.988 112.195 266.78C113.831 259.15 117.017 252.033 121.503 245.985C121.885 251.011 123.224 266.715 124.09 276.559Z" fill="#EB9481"/>
<path d="M102.772 129.288C102.772 129.288 103.377 131.461 103.528 132.5C103.528 132.613 103.282 132.688 102.942 132.745C102.066 133.029 101.128 133.066 100.232 132.853C99.3358 132.64 98.5155 132.184 97.8606 131.536C97.8473 131.516 97.8406 131.493 97.8414 131.469C97.8422 131.445 97.8505 131.422 97.8652 131.403C97.8798 131.384 97.9001 131.371 97.923 131.364C97.946 131.357 97.9704 131.358 97.9929 131.366C99.4502 132.103 101.107 132.349 102.716 132.065C102.716 131.763 101.544 128.287 101.714 128.287C102.532 128.249 103.352 128.319 104.151 128.495C103.018 123.942 101.185 119.597 100.128 115.025C100.128 114.874 100.316 114.799 100.392 115.025C102.509 119.624 104.167 124.42 105.341 129.345C105.474 129.911 103.226 129.439 102.772 129.288Z" fill="#263238"/>
<path d="M102.753 132.311C102.333 133.25 101.684 134.069 100.864 134.691C100.399 135.013 99.8427 135.178 99.277 135.163C98.0491 135.163 97.7657 134.087 97.7657 133.104C97.7729 132.595 97.8362 132.088 97.9547 131.593C99.438 132.334 101.118 132.585 102.753 132.311Z" fill="#263238"/>
<path d="M100.827 134.691C100.361 135.013 99.8056 135.178 99.2399 135.163C98.012 135.163 97.7286 134.086 97.7286 133.104C98.348 132.986 98.9889 133.078 99.5501 133.366C100.111 133.653 100.56 134.119 100.827 134.691Z" fill="#FF9CBD"/>
<path d="M74.3034 128.362C79.6684 127.985 80.5941 111.361 80.6885 109.339C80.6885 110.624 80.6885 117.444 81.3119 117.689C81.8839 117.661 82.4465 117.533 82.9744 117.311C82.9474 116.497 82.9853 115.682 83.0877 114.874C83.3152 115.612 83.4609 116.372 83.5222 117.141L84.5045 116.82C84.3821 115.083 84.4837 113.337 84.8068 111.625C85.2863 113.18 85.6649 114.763 85.9402 116.367C90.4806 114.85 95.1755 113.842 99.9384 113.363C101.261 113.25 102.432 113.231 103.452 113.231C103.452 111.228 103.074 109.094 103.244 109.547C103.691 110.772 104.02 112.037 104.227 113.325H105.757C105.757 110.473 104.264 105.996 104.737 106.676C106.172 108.762 107.198 111.102 107.759 113.571C109.648 113.873 110.253 114.232 110.291 113.722C109.492 108.155 106.74 103.053 102.527 99.3271C95.5557 93.2442 82.0865 92.1674 74.889 102.217C74.889 102.217 68.825 106.506 68.0882 113.099C67.3515 119.692 71.1864 128.589 74.3034 128.362Z" fill="#263238"/>
<path d="M87.8984 101.133C87.5956 103.227 83.7681 104.22 79.5538 103.4C75.3394 102.581 72.2418 100.243 72.6755 98.168C73.1092 96.0929 76.8245 95.0841 81.0388 95.9036C85.2532 96.7231 88.3162 99.0366 87.8984 101.133Z" fill="#1683ED"/>
<path d="M86.3124 100.35C86.0826 101.939 83.1638 102.719 79.9537 102.083C76.7435 101.447 74.4036 99.6774 74.8017 98.1125C75.1998 96.5476 77.9663 95.7643 81.1577 96.3977C84.3492 97.031 86.6143 98.7902 86.3124 100.35Z" fill="#263238"/>
<path d="M86.5806 98.7658L85.4893 97.9971C86.3279 96.9792 87.48 96.2677 88.7656 95.9737C90.0513 95.6796 91.3981 95.8196 92.5958 96.3718L92.0941 97.5972C91.95 97.5382 88.3697 96.1614 86.5806 98.7658Z" fill="#1683ED"/>
<path d="M67.8281 124.953C67.8606 124.728 67.9149 119.602 68.0021 118.603C68.0893 117.603 76.2285 101.316 76.242 101.222L76.7516 101.658L77.3147 101.988C76.8215 102.89 69.5774 117.609 69.3377 118.738C69.0979 119.868 69.1693 124.918 69.1799 124.976L67.8281 124.953Z" fill="#1683ED"/>
<path d="M105.643 98.2782C105.34 100.372 101.491 101.381 97.2766 100.561C93.0622 99.7418 89.9833 97.4068 90.3983 95.329C90.8133 93.2512 94.55 92.2265 98.7644 93.046C102.979 93.8654 106.036 96.2164 105.643 98.2782Z" fill="#1683ED"/>
<path d="M103.985 97.7329C103.755 99.3221 100.817 100.1 97.626 99.4664C94.4345 98.8331 92.0759 97.0604 92.474 95.4955C92.8721 93.9307 95.6199 93.1447 98.83 93.7807C102.04 94.4168 104.303 96.061 103.985 97.7329Z" fill="#263238"/>
<path d="M76.7787 129.156C76.7787 129.156 71.9615 122.299 68.8634 124.018C65.7653 125.737 69.3734 135.673 73.0383 137.015C73.4958 137.211 73.9876 137.314 74.4853 137.32C74.9831 137.325 75.477 137.232 75.9386 137.046C76.4003 136.86 76.8207 136.585 77.1756 136.235C77.5305 135.886 77.8129 135.471 78.0066 135.012L76.7787 129.156Z" fill="#EB9481"/>
<path d="M69.9585 126.851C69.9585 126.851 69.9585 126.851 69.9585 126.946C71.1371 127.524 72.1804 128.344 73.0203 129.354C73.8601 130.363 74.4776 131.538 74.8324 132.802C74.6835 132.546 74.4809 132.326 74.2386 132.157C73.9962 131.987 73.72 131.872 73.4289 131.82C73.1378 131.768 72.8388 131.78 72.5527 131.855C72.2666 131.93 72.0003 132.066 71.772 132.254C71.772 132.254 71.772 132.405 71.772 132.386C72.2245 132.244 72.7096 132.244 73.1621 132.386C73.6146 132.528 74.0128 132.805 74.3034 133.18C74.7748 133.81 75.18 134.487 75.5124 135.201C75.6258 135.446 76.0414 135.314 75.9469 135.05C76.0225 131.725 73.4722 127.172 69.9585 126.851Z" fill="#263238"/>
<path d="M75.3877 173.384C85.1591 191.271 103.993 215.167 117.068 222.97C123.592 226.863 159.381 238.321 172.093 237.175C176.646 236.781 175.616 198.293 171.176 199.863C165.148 201.91 132.494 192.306 129.011 191.326C125.529 190.346 101.82 177.284 89.9076 166.678C73.611 152.089 67.2265 158.468 75.3877 173.384Z" fill="#EB9481"/>
<path d="M164.907 201.71C164.907 201.71 178.623 196.971 187.751 194.268C192.841 192.756 201.829 190.931 206.162 191.46C212.575 192.276 238.951 199.587 237.335 205.727C235.866 211.218 213.93 202.249 213.93 202.249C213.93 202.249 226.766 205.112 223.779 211.492C220.792 217.873 207.354 208.891 207.354 208.891C207.354 208.891 224.017 213.433 219.767 219.471C216.57 224.058 201.422 216.565 201.422 216.565C201.422 216.565 215.676 220.829 212.6 225.693C209.189 231.062 194.15 224.857 194.15 224.857C184.118 235.917 175.398 237.941 167.381 237.043C165.746 236.87 164.907 201.71 164.907 201.71Z" fill="#EB9481"/>
<path d="M203.723 198.524C205.512 198.766 207.33 198.979 209.089 199.463C210.848 199.946 212.593 200.514 214.294 201.239C216.539 202.12 218.683 203.388 220.685 205.018C216.988 202.525 210.701 200.671 208.942 200.187C207.184 199.704 205.459 199.092 203.7 198.623C203.652 198.611 203.676 198.512 203.723 198.524Z" fill="#263238"/>
<path d="M201.706 208.002C203.988 208.473 206.277 208.801 208.534 209.432C210.79 210.063 212.854 210.933 215.052 211.797C215.221 211.862 215.129 211.981 214.96 211.917C212.737 211.198 210.623 210.805 208.349 210.131C206.076 209.458 203.905 208.636 201.654 208.09C201.655 208.076 201.678 207.989 201.706 208.002Z" fill="#263238"/>
<path d="M199.084 215.993C202.577 216.62 205.983 217.827 209.249 219.596C209.417 219.679 209.296 219.82 209.119 219.753C205.769 218.394 203.135 217.395 199.056 216.19C199 216.163 199.008 215.981 199.084 215.993Z" fill="#263238"/>
<path d="M70.9912 175.171C74.3061 174.442 77.384 172.971 79.9752 170.878C82.5664 168.785 84.598 166.13 85.9052 163.127C85.9052 163.127 102.883 167.385 104.727 180.245C103.648 184.659 101.095 188.597 97.4535 191.465C93.8119 194.332 89.2794 195.973 84.5404 196.14C84.5404 196.14 72.5916 193.601 70.9912 175.171Z" fill="#1683ED"/>
<path d="M81.0049 169.972C80.367 170.577 79.6855 171.139 78.9652 171.653C78.8612 172.163 78.9733 172.694 79.2769 173.13C79.5805 173.566 80.0508 173.871 80.5842 173.978C81.1176 174.085 81.6705 173.985 82.1213 173.7C82.572 173.415 82.8837 172.968 82.9877 172.458C83.1093 171.956 83.0208 171.425 82.7412 170.979C82.4616 170.533 82.0128 170.207 81.4905 170.07C81.3333 170.018 81.1702 169.985 81.0049 169.972ZM73.781 183.643C73.703 184.003 73.7365 184.378 73.8774 184.722C74.0183 185.066 74.2604 185.365 74.5741 185.582C74.8878 185.799 75.2595 185.924 75.6434 185.942C76.0273 185.96 76.4069 185.87 76.7354 185.684C77.064 185.497 77.3274 185.222 77.4932 184.892C77.6589 184.562 77.7199 184.192 77.6687 183.826C77.6174 183.461 77.4562 183.116 77.2046 182.834C76.9531 182.553 76.6223 182.347 76.2528 182.241C75.9886 182.16 75.7103 182.132 75.436 182.161C75.1617 182.189 74.8974 182.272 74.6603 182.405C74.4232 182.538 74.2186 182.718 74.0596 182.932C73.9007 183.147 73.791 183.391 73.7377 183.651L73.781 183.643ZM92.9168 169.985C92.8387 170.344 92.8722 170.719 93.0131 171.064C93.154 171.408 93.3962 171.707 93.7099 171.924C94.0236 172.14 94.3952 172.266 94.7791 172.284C95.1631 172.302 95.5426 172.212 95.8712 172.026C96.1998 171.839 96.4631 171.564 96.6289 171.234C96.7947 170.904 96.8557 170.534 96.8044 170.168C96.7532 169.803 96.5919 169.458 96.3404 169.176C96.0889 168.895 95.758 168.688 95.3885 168.583C95.1245 168.516 94.85 168.499 94.5807 168.533C94.3114 168.568 94.0526 168.653 93.819 168.784C93.5854 168.915 93.3817 169.089 93.2194 169.296C93.0572 169.504 92.9396 169.74 92.8734 169.992L92.9168 169.985ZM88.4977 191.936C88.4197 192.296 88.4532 192.671 88.5941 193.015C88.7349 193.36 88.9771 193.658 89.2908 193.875C89.6045 194.092 89.9761 194.217 90.3601 194.235C90.744 194.253 91.1236 194.163 91.4521 193.977C91.7807 193.791 92.0441 193.515 92.2099 193.186C92.3756 192.856 92.4366 192.485 92.3854 192.12C92.3341 191.754 92.1729 191.409 91.9213 191.128C91.6698 190.846 91.339 190.64 90.9695 190.534C90.7096 190.468 90.4391 190.453 90.1744 190.49C89.9097 190.527 89.6564 190.615 89.4299 190.749C89.2035 190.884 89.0086 191.061 88.8572 191.271C88.7058 191.481 88.6011 191.719 88.5494 191.971L88.4977 191.936ZM86.7249 181.415C86.6468 181.774 86.6803 182.149 86.8212 182.493C86.9621 182.838 87.2043 183.137 87.518 183.353C87.8317 183.57 88.2033 183.695 88.5872 183.713C88.9712 183.731 89.3507 183.642 89.6793 183.455C90.0079 183.269 90.2712 182.994 90.437 182.664C90.6028 182.334 90.6638 181.963 90.6125 181.598C90.5613 181.232 90.4 180.887 90.1485 180.606C89.897 180.324 89.5661 180.118 89.1966 180.012C88.9368 179.946 88.6662 179.931 88.4015 179.968C88.1369 180.005 87.8836 180.093 87.6571 180.228C87.4306 180.362 87.2358 180.54 87.0844 180.75C86.9329 180.96 86.8282 181.197 86.7765 181.449L86.7249 181.415ZM98.9219 179.485C98.8399 179.845 98.8698 180.221 99.0078 180.567C99.1459 180.913 99.3862 181.215 99.699 181.434C100.012 181.654 100.383 181.781 100.768 181.802C101.153 181.822 101.534 181.734 101.864 181.549C102.195 181.363 102.46 181.089 102.627 180.759C102.794 180.428 102.857 180.057 102.806 179.691C102.755 179.324 102.594 178.978 102.342 178.696C102.09 178.413 101.759 178.207 101.388 178.101C101.13 178.035 100.861 178.02 100.598 178.056C100.335 178.093 100.084 178.18 99.8579 178.312C99.6323 178.445 99.4376 178.62 99.2856 178.827C99.1336 179.035 99.0275 179.27 98.9735 179.519L98.9219 179.485Z" fill="white"/>
<path d="M138.191 230.188C143.349 231.638 148.79 232.922 153.835 234.732C153.856 234.807 154.177 234.311 154.047 235.225C154.009 235.303 141.386 232.351 135.415 230.728C130.503 229.383 125.251 228.385 120.83 225.66C116.779 223.058 112.925 220.159 109.3 216.988C105.619 213.897 102.133 210.582 98.86 207.061C98.2451 206.408 97.6543 205.733 97.0515 205.069C94.9929 202.699 91.7501 198.566 90.0086 195.954C89.948 195.813 90.1128 195.731 90.1989 195.827C93.6422 199.848 97.0494 203.901 100.781 207.674C104.121 211.079 107.646 214.296 111.341 217.31C113.167 218.8 115.054 220.224 116.977 221.605C118.91 223.058 120.946 224.368 123.069 225.524C125.425 226.618 127.889 227.464 130.419 228.05L138.191 230.188Z" fill="#263238"/>
<path d="M68.5453 178.891C68.94 179.76 69.3732 180.613 69.8253 181.466C70.0523 181.873 70.3169 182.283 70.5825 182.673C70.0573 180.249 69.6849 177.793 69.4674 175.322C70.1651 179.397 71.3924 183.364 73.1183 187.122C74.5783 190.551 77.0953 193.424 80.3024 195.322C80.326 195.325 80.3484 195.334 80.3679 195.348C80.3874 195.361 80.4034 195.38 80.4146 195.401C80.4258 195.422 80.4319 195.445 80.4324 195.469C80.4328 195.493 80.4277 195.516 80.4173 195.538C80.4069 195.559 80.3916 195.578 80.3726 195.592C80.3537 195.606 80.3315 195.616 80.3081 195.62C80.2847 195.625 80.2606 195.623 80.2378 195.616C80.215 195.61 80.1941 195.597 80.1769 195.581C76.881 193.903 74.1839 191.249 72.4544 187.98C71.6825 186.48 71.0834 184.898 70.6686 183.264C70.3157 182.718 69.9439 182.171 69.6108 181.607C69.1664 180.739 68.8095 179.83 68.5453 178.891Z" fill="#263238"/>
<path d="M163.41 69.9397C163.411 74.8975 162.034 79.758 159.433 83.9787C156.833 88.1995 153.11 91.6144 148.681 93.8424C144.252 96.0703 139.291 97.0237 134.352 96.5959C129.413 96.1682 124.689 94.3762 120.71 91.4201L107.611 94.7706L113.033 82.5612C111.129 78.9755 110.067 75.0036 109.926 70.9464C109.785 66.8892 110.57 62.8532 112.22 59.1441C113.87 55.4351 116.343 52.1503 119.451 49.5387C122.559 46.9271 126.221 45.0571 130.159 44.0705C134.097 43.0839 138.208 43.0066 142.18 43.8443C146.152 44.682 149.882 46.4129 153.086 48.9057C156.29 51.3985 158.885 54.5879 160.673 58.2322C162.462 61.8765 163.398 65.8801 163.41 69.9397Z" fill="white"/>
<path d="M163.41 69.9397C163.421 74.9142 162.051 79.7941 159.452 84.0358C158.794 85.0894 158.07 86.0998 157.283 87.0611C156.487 88.006 155.632 88.9005 154.724 89.7393C152.92 91.4287 150.887 92.856 148.685 93.979C146.481 95.1157 144.131 95.944 141.702 96.4404C140.481 96.6788 139.246 96.831 138.004 96.8958C136.766 96.9934 135.523 96.9934 134.285 96.8958C129.28 96.5003 124.485 94.7166 120.438 91.7453L120.764 91.8104L107.687 95.2368L106.732 95.4862L107.134 94.5862L112.555 82.366V82.8214C110.605 79.1725 109.516 75.1256 109.371 70.9907C109.226 66.8558 110.03 62.7427 111.72 58.9664C113.42 55.1958 115.952 51.8593 119.126 49.2075C122.3 46.5967 126.023 44.7373 130.017 43.7684C134.011 42.7995 138.172 42.7462 142.19 43.6124C146.173 44.5131 149.905 46.2953 153.109 48.828C156.307 51.3421 158.895 54.5472 160.679 58.2033C162.463 61.8594 163.396 65.8716 163.41 69.9397ZM163.41 69.9397C163.417 65.8874 162.493 61.8877 160.71 58.2489C158.927 54.6102 156.331 51.4297 153.124 48.9529C149.917 46.476 146.184 44.7689 142.212 43.9633C138.241 43.1577 134.138 43.2751 130.219 44.3064C126.336 45.3069 122.734 47.1838 119.69 49.7931C116.679 52.4187 114.274 55.667 112.642 59.3134C111.05 62.9668 110.309 66.9339 110.473 70.9156C110.633 74.8943 111.678 78.7873 113.531 82.3117L113.65 82.5395L113.553 82.778L108.001 94.9983L107.448 94.3369L120.579 91.0839L120.753 91.0297L120.904 91.149C124.809 94.0997 129.456 95.9089 134.328 96.3753C135.543 96.4945 136.765 96.5163 137.982 96.4404C139.205 96.3968 140.422 96.2663 141.626 96.0501C144.036 95.6093 146.372 94.8318 148.565 93.7405C150.782 92.6616 152.825 91.2583 154.627 89.5767C155.531 88.7499 156.386 87.87 157.186 86.9418C157.969 85.9859 158.694 84.9828 159.354 83.9382C161.974 79.7366 163.378 74.891 163.41 69.9397Z" fill="#263238"/>
<path d="M149.412 66.8699V65.6621H155.758V66.8699H153.3V73.6159H151.871V66.8699H149.412Z" fill="#263238"/>
<path d="M141.994 73.6159V65.6621H144.977C145.588 65.6621 146.1 65.7683 146.515 65.9806C146.931 66.1929 147.246 66.4906 147.458 66.8738C147.673 67.2544 147.781 67.6985 147.781 68.2059C147.781 68.716 147.672 69.1587 147.454 69.5342C147.239 69.907 146.922 70.1957 146.503 70.4002C146.083 70.6022 145.568 70.7031 144.957 70.7031H142.833V69.507H144.763C145.12 69.507 145.413 69.4578 145.641 69.3594C145.869 69.2584 146.037 69.1121 146.146 68.9205C146.257 68.7263 146.313 68.4881 146.313 68.2059C146.313 67.9237 146.257 67.6829 146.146 67.4836C146.034 67.2816 145.865 67.1289 145.637 67.0253C145.409 66.9191 145.115 66.8661 144.755 66.8661H143.435V73.6159H141.994ZM146.103 70.0119L148.072 73.6159H146.464L144.53 70.0119H146.103Z" fill="#263238"/>
<path d="M134.445 73.6159H132.907L135.707 65.6621H137.486L140.29 73.6159H138.752L136.628 67.2933H136.566L134.445 73.6159ZM134.496 70.4973H138.69V71.6547H134.496V70.4973Z" fill="#263238"/>
<path d="M126.159 66.8699V65.6621H132.505V66.8699H130.046V73.6159H128.617V66.8699H126.159Z" fill="#263238"/>
<path d="M123.072 67.8487C123.036 67.5096 122.883 67.2455 122.614 67.0565C122.347 66.8675 122 66.7729 121.573 66.7729C121.273 66.7729 121.015 66.8183 120.8 66.9089C120.585 66.9995 120.421 67.1225 120.307 67.2778C120.193 67.4332 120.135 67.6105 120.132 67.8099C120.132 67.9756 120.17 68.1193 120.245 68.241C120.323 68.3627 120.428 68.4662 120.56 68.5517C120.692 68.6345 120.838 68.7044 120.998 68.7614C121.159 68.8184 121.321 68.8663 121.484 68.9051L122.23 69.0915C122.53 69.1614 122.819 69.2559 123.096 69.375C123.375 69.4941 123.625 69.6443 123.845 69.8255C124.068 70.0068 124.244 70.2256 124.373 70.4819C124.503 70.7382 124.568 71.0385 124.568 71.3829C124.568 71.8489 124.448 72.2593 124.21 72.614C123.972 72.9662 123.628 73.2419 123.177 73.4413C122.729 73.638 122.187 73.7364 121.55 73.7364C120.931 73.7364 120.394 73.6406 119.938 73.449C119.485 73.2574 119.13 72.9778 118.874 72.6101C118.62 72.2425 118.483 71.7946 118.462 71.2664H119.88C119.901 71.5434 119.986 71.7739 120.136 71.9577C120.286 72.1415 120.482 72.2787 120.723 72.3694C120.966 72.46 121.238 72.5053 121.538 72.5053C121.852 72.5053 122.126 72.4587 122.362 72.3655C122.6 72.2697 122.786 72.1376 122.921 71.9693C123.056 71.7985 123.124 71.5991 123.127 71.3712C123.124 71.1641 123.063 70.9932 122.944 70.8586C122.825 70.7214 122.658 70.6075 122.443 70.5168C122.231 70.4236 121.982 70.3408 121.698 70.2683L120.793 70.0353C120.138 69.867 119.62 69.6119 119.239 69.2702C118.861 68.9258 118.672 68.4688 118.672 67.8992C118.672 67.4306 118.799 67.0202 119.053 66.6681C119.309 66.316 119.657 66.0428 120.097 65.8486C120.538 65.6519 121.036 65.5535 121.593 65.5535C122.157 65.5535 122.652 65.6519 123.076 65.8486C123.503 66.0428 123.839 66.3134 124.082 66.6603C124.325 67.0047 124.451 67.4008 124.459 67.8487H123.072Z" fill="#263238"/>
</g>
<defs>
<clipPath id="clip0_1_1929">
<rect width="326" height="328" fill="white" transform="translate(-4 -4)"/>
</clipPath>
</defs>
</svg>
