<svg width="312" height="332" viewBox="0 0 312 332" fill="none" xmlns="http://www.w3.org/2000/svg">
<g clip-path="url(#clip0_1_2020)" filter="url(#filter0_d_1_2020)">
<rect width="327" height="327" transform="translate(-4 -3)" fill="#F565AF"/>
<path d="M149.987 353H266.794V198.848L149.987 198.848V353Z" fill="#536067"/>
<path d="M125.015 51.2048L156.019 73.9319L156.319 203.569H149.618V184.15L125.015 51.2048Z" fill="#263238"/>
<path d="M240.944 51.1733L244.62 73.9137H155.948L124.957 51.1733H240.944Z" fill="#263238"/>
<path d="M260.007 72.3877H155.989V205.036H260.007V72.3877Z" fill="#536067"/>
<path d="M248.235 123.229H167.867V220.722H248.235V123.229Z" fill="#263238"/>
<path d="M259.791 353H292.866V51.0754L239.678 51.0754L259.791 196.472V353Z" fill="#37474F"/>
<path d="M292.867 51.0754H266.794V353H292.867V51.0754Z" fill="#37474F"/>
<path opacity="0.2" d="M240.646 256.624H175.208V265.582H240.646V256.624Z" fill="#CECECE"/>
<path d="M238.012 259.469H177.841V262.711H238.012V259.469Z" fill="#263238"/>
<ellipse cx="206.61" cy="104.936" rx="5.31898" ry="7.19002" fill="#263238"/>
<rect x="194" y="196" width="27.6791" height="9.22638" rx="4.61319" fill="#D1D1D1"/>
<path d="M193 147V159.727H195.818V162.909H198.636V159.727H204.273V147H193ZM204.273 159.727V162.909H207.091V166.091H201.455V169.273H193V182H204.273V169.273H212.727V166.091H209.909V162.909H215.545V159.727H218.364V162.909H221.182V159.727H224V147H212.727V159.727H204.273ZM221.182 162.909V166.091H224V162.909H221.182ZM221.182 166.091H218.364V169.273H221.182V166.091ZM221.182 169.273V172.455H224V169.273H221.182ZM221.182 172.455H218.364V169.273H215.545V172.455H208.5V182H211.318V175.636H216.955V178.818H219.773V175.636H221.182V172.455ZM216.955 178.818H214.136V182H216.955V178.818ZM218.364 166.091V162.909H215.545V166.091H218.364ZM201.455 166.091V162.909H198.636V166.091H201.455ZM195.818 162.909H193V166.091H195.818V162.909ZM207.091 147V153.364H205.682V156.545H207.091V158.136H209.909V153.364H211.318V150.182H209.909V147H207.091ZM195.818 150.182H201.455V156.545H195.818V150.182ZM215.545 150.182H221.182V156.545H215.545V150.182ZM197.227 151.773V154.955H200.045V151.773H197.227ZM216.955 151.773V154.955H219.773V151.773H216.955ZM195.818 172.455H201.455V178.818H195.818V172.455ZM197.227 174.045V177.227H200.045V174.045H197.227ZM221.182 178.818V182H224V178.818H221.182Z" fill="#D1D1D1"/>
<path d="M143.888 324.434H79.2596C71.5293 297.318 65.3116 276.667 65.3116 276.667H126.589C126.589 276.667 134.16 297.119 143.888 324.434Z" fill="#37474F"/>
<path d="M88.725 324.434H87.3955C83.5661 311.656 79.5856 298.958 75.6846 286.165C75.6289 285.998 75.8916 285.918 75.9553 286.085C76.7514 288.298 77.5475 290.512 78.3436 292.733C82.0694 303.21 85.4848 313.798 88.725 324.434Z" fill="#263238"/>
<path d="M125.188 276.691C125.116 277.973 121.701 289.699 119.934 307.246C119.289 313.718 118.556 319.809 117.776 324.434H32.0105C23.5239 298.21 36.1184 276.667 36.1184 276.667C36.1184 276.667 125.196 276.635 125.188 276.691Z" fill="#37474F"/>
<path d="M108.046 305.734C108.349 310.136 108.452 314.547 108.397 318.949C108.257 320.774 108.241 322.607 108.349 324.434H106.86C106.502 321.64 106.86 318.161 106.86 315.414C106.812 304.038 105.363 292.789 103.612 281.564C103.61 281.513 103.627 281.464 103.658 281.424C103.689 281.384 103.733 281.357 103.782 281.347C103.832 281.336 103.883 281.343 103.928 281.367C103.972 281.391 104.007 281.429 104.026 281.476C106.195 289.402 107.543 297.531 108.046 305.734Z" fill="#263238"/>
<path d="M118.683 311.418C118.603 313.758 117.966 319.992 116.127 324.434H114.846C117.337 318.36 117.194 306.505 117.011 303.735C116.494 295.615 115.865 287.988 114.487 279.438C114.44 279.167 114.885 279.151 114.941 279.398C117.369 289.715 119.017 300.829 118.683 311.418Z" fill="#263238"/>
<path d="M37.3047 288.075C34.8208 298.815 36.0309 310.366 38.4033 320.995C38.6501 322.149 38.9287 323.295 39.1994 324.434H37.9097C34.3988 309.618 33.3241 294.285 39.5019 279.915C39.5816 279.74 39.8443 279.915 39.7726 280.066C38.7477 282.669 37.9227 285.347 37.3047 288.075Z" fill="#263238"/>
<path d="M160.149 120.055L146.058 164.908C145.493 166.214 146.106 167.344 147.411 167.416L170.881 168.753C171.6 168.742 172.3 168.527 172.901 168.132C173.502 167.737 173.977 167.18 174.272 166.524L188.332 121.703C188.897 120.389 188.284 119.267 186.978 119.195L163.573 117.858C162.852 117.86 162.147 118.067 161.54 118.457C160.934 118.846 160.451 119.4 160.149 120.055Z" fill="#676767"/>
<path d="M162.935 120.222L148.876 165.044C148.311 166.349 148.924 167.472 150.237 167.552L173.699 168.889C174.418 168.877 175.119 168.661 175.721 168.266C176.323 167.872 176.8 167.315 177.098 166.66L191.15 121.831C191.715 120.525 191.11 119.442 189.796 119.331L166.327 117.985C165.608 118 164.908 118.218 164.308 118.613C163.707 119.009 163.232 119.567 162.935 120.222Z" fill="#A6A6A6"/>
<path d="M170.397 123.774C170.366 124.168 170.218 124.544 169.974 124.854C169.729 125.164 169.397 125.395 169.021 125.517C168.645 125.639 168.241 125.646 167.861 125.539C167.48 125.431 167.14 125.213 166.884 124.912C166.628 124.611 166.466 124.241 166.42 123.848C166.374 123.455 166.446 123.058 166.626 122.706C166.806 122.354 167.087 122.063 167.432 121.871C167.777 121.678 168.172 121.592 168.566 121.624C169.094 121.667 169.583 121.917 169.926 122.32C170.27 122.723 170.439 123.246 170.397 123.774Z" fill="#263238"/>
<path d="M174.466 127.333C174.435 127.727 174.288 128.103 174.043 128.413C173.798 128.723 173.466 128.954 173.09 129.076C172.714 129.198 172.31 129.205 171.93 129.098C171.549 128.99 171.21 128.772 170.953 128.471C170.697 128.17 170.535 127.799 170.49 127.407C170.444 127.014 170.515 126.617 170.695 126.265C170.875 125.913 171.156 125.622 171.501 125.43C171.847 125.237 172.241 125.151 172.635 125.183C173.163 125.226 173.652 125.476 173.995 125.879C174.339 126.282 174.508 126.805 174.466 127.333Z" fill="#263238"/>
<path d="M168.872 129.367C168.841 129.761 168.694 130.137 168.449 130.447C168.204 130.758 167.872 130.988 167.496 131.11C167.12 131.232 166.716 131.24 166.336 131.132C165.956 131.024 165.616 130.806 165.359 130.505C165.103 130.204 164.942 129.834 164.896 129.441C164.85 129.049 164.921 128.651 165.102 128.299C165.282 127.947 165.562 127.657 165.907 127.464C166.253 127.271 166.647 127.186 167.041 127.218C167.569 127.26 168.058 127.51 168.402 127.914C168.745 128.317 168.914 128.839 168.872 129.367Z" fill="#263238"/>
<path d="M100.102 184.628C111.51 213.774 119.901 242.62 137.159 253.42C140.982 255.052 153.399 255.984 161.544 249.75C179.313 236.153 185.705 209.886 189.63 193.972C191.031 188.312 163.979 174.069 159.553 178.456C153.955 188.567 146.091 208.488 144.379 208.249C138.106 207.357 128.834 185.161 112.569 169.566C92.8254 150.618 95.5402 173.013 100.102 184.628Z" fill="#D26E58"/>
<path d="M192.333 165.323C190.355 154.457 188.204 151.978 191.337 141.923C193.394 135.341 190.117 131.151 185.072 136.226C176.815 144.519 176.461 159.078 177.775 164.161L192.333 165.323Z" fill="#D26E58"/>
<path d="M188.49 197.755C188.49 197.755 194.296 182.768 193.298 170.683C192.604 162.306 189.103 144.242 166.892 133.338C161.625 130.751 152.318 130.872 159.417 138.279C164.454 143.543 169.218 145.325 171.604 148.927C171.604 148.927 159.786 150.507 157.437 155.981C155.397 160.768 153.691 165.696 152.333 170.728C153.18 171.193 154.056 171.603 154.955 171.954C154.955 171.954 152.924 177.15 156.299 184.941L188.49 197.755Z" fill="#D26E58"/>
<path d="M191.252 163.153C188.127 160.024 181.395 153.514 174.091 150.162C165.986 146.443 149.388 141.535 146.791 147.747C144.89 152.302 151.066 154.756 151.066 154.756C151.066 154.756 143.792 154.219 142.946 158.721C142.203 162.823 147.058 164.426 147.058 164.426C147.058 164.426 142.604 164.886 142.604 168.989C142.604 173.92 151.949 172.148 156.121 177.156C157.041 178.275 191.252 163.153 191.252 163.153Z" fill="#D26E58"/>
<path d="M171.774 159.835C168.395 157.321 159.355 153.727 151.441 154.665C151.257 154.665 151.176 154.839 151.345 154.854C158.311 155.652 165.161 157.351 171.744 159.914C171.789 159.937 171.811 159.859 171.774 159.835Z" fill="#263238"/>
<path d="M168.534 167.411C165.29 165.995 155.45 163.506 147.111 164.452C146.927 164.452 146.85 164.596 147.026 164.608C154.282 164.921 161.469 165.881 168.45 167.471C168.46 167.48 168.474 167.485 168.489 167.486C168.504 167.486 168.519 167.482 168.53 167.474C168.541 167.466 168.548 167.455 168.548 167.443C168.549 167.431 168.544 167.42 168.534 167.411Z" fill="#263238"/>
<path d="M135.712 187L131.365 192.279L130.466 193.377L113.054 214.411C113.054 214.411 97.2993 188.68 94.1149 174.048C92.2122 165.29 93.5815 160.076 97.4108 159.128C97.6959 159.061 97.9862 159.019 98.2786 159.001C100.754 158.786 104.082 160.092 108.063 163.029C119.272 171.309 135.712 187 135.712 187Z" fill="#FFC727"/>
<path d="M109.671 205.661C110.611 203.448 120.283 190.161 128.34 181.722C128.364 181.695 128.399 181.678 128.435 181.676C128.472 181.674 128.508 181.686 128.535 181.71C128.563 181.735 128.579 181.769 128.581 181.805C128.584 181.842 128.571 181.878 128.547 181.905C127.751 182.94 111.829 204.284 109.95 205.9C109.799 206.036 109.607 205.821 109.671 205.661Z" fill="#263238"/>
<path opacity="0.13" d="M124.201 200.964L113.055 214.403C113.055 214.403 97.3 188.68 94.1156 174.047C91.9183 163.953 94.0598 158.587 99.2903 158.993L124.201 200.964Z" fill="black"/>
<path d="M127.385 280.226C125.156 282.614 30.9037 292.685 30.3624 292.032C28.9214 290.273 37.5911 195.017 76.2027 160.124C83.0095 153.978 95.0309 155.729 100.604 158.89C103.382 160.482 108.223 173.634 112.959 189.007C116.542 200.749 128.754 278.681 127.385 280.226Z" fill="#0096D0"/>
<path d="M127.385 280.226C126.891 280.759 121.812 281.683 114.225 282.781L113.365 282.901C109.528 283.45 105.101 284.039 100.325 284.636L99.2896 284.772C85.6521 286.483 69.3875 288.314 56.0764 289.716L55.6465 289.755C41.3164 291.268 30.5449 292.255 30.3618 292.032C30.1787 291.809 30.1787 287.837 30.8077 281.579C30.8077 281.317 30.8634 281.038 30.8873 280.783C32.3919 266.318 36.5636 240.038 45.0502 214.618C45.1855 214.204 45.3288 213.822 45.4642 213.384C48.0036 205.806 50.9998 198.388 54.4364 191.172C54.5399 190.957 54.6354 190.75 54.7469 190.535C58.1109 183.456 62.1642 176.726 66.8478 170.441C67.0071 170.234 67.1583 170.035 67.3255 169.844C69.9874 166.35 72.9583 163.102 76.2022 160.14C77.1118 159.329 78.1202 158.636 79.2036 158.078C79.4504 157.95 79.7051 157.831 79.9599 157.72C83.3546 156.294 87.0534 155.747 90.7154 156.127L91.623 156.223C94.7624 156.53 97.8122 157.444 100.603 158.914C101.694 159.543 103.111 161.947 104.711 165.601C104.791 165.76 104.862 165.935 104.934 166.111C107.322 171.683 110.18 179.995 112.959 189.031C113.938 192.215 115.57 200.336 117.377 210.462L117.497 211.147C118.126 214.642 118.771 218.384 119.415 222.237C119.511 222.786 119.606 223.327 119.694 223.877C121.008 231.742 122.321 240.006 123.492 247.712C123.531 248.023 123.579 248.341 123.635 248.644C124.622 255.236 125.498 261.382 126.174 266.469C126.222 266.875 126.27 267.265 126.326 267.663C127.225 274.972 127.687 279.852 127.385 280.226Z" fill="#FFC727"/>
<path d="M64 171C53.9481 189.54 44.1593 211.655 34.6856 239.728C29.5113 255.062 30.9468 283.552 32.5302 302.334C30.0628 310.232 68.0085 305.739 69.3862 300.235C70.0822 297.467 62.9286 277.021 67.6063 253.137C74.8066 222.834 80.8545 195.911 80.8914 176.922C80.931 158.384 69.905 160.131 64 171Z" fill="#D26E58"/>
<path d="M32.2208 297.354C30.7966 312.872 28.152 332.048 34.7455 348.082C35.4451 349.877 36.6633 351.359 38.2075 352.296C41.0971 359.514 44.9593 360.192 44.9593 360.192C49.4738 366.008 53.5668 366.077 53.5668 366.077C53.5668 366.077 56.9922 374.526 61.9226 373.067C67.4647 371.483 61.5773 359.826 61.8291 351.357C62.4244 331.775 68.2891 301.207 68.9679 295.574L32.2208 297.354Z" fill="#D26E58"/>
<path d="M63.886 327.813C64.8694 325.294 66.0685 325.839 67.1722 330.569C68.2759 335.298 69.0783 355.015 75.2523 354.118C81.4263 353.22 78.7832 325.721 77.5552 317.746C76.1566 309.3 73.0181 301.332 68.3851 294.465C67.6932 299.949 65.3711 317.078 63.886 327.813Z" fill="#D26E58"/>
<path d="M83.699 209.03L46.4248 209.213C46.4248 209.213 56.5434 179.256 66.1764 166.876C75.8094 154.496 83.5397 156.128 84.3995 170.697C85.2593 185.266 83.699 209.03 83.699 209.03Z" fill="#FFC727"/>
<path d="M80.6422 173.755C80.69 174.415 80.7218 175.108 80.7457 175.801C80.7457 176.111 80.7457 176.422 80.7935 176.74C81.3189 191.333 79.9496 212.088 79.9496 212.088L69.823 212.143H68.8119L42.6754 212.287C42.6754 212.287 46.9665 199.549 52.603 187.304C52.794 186.898 52.9772 186.508 53.1841 186.078C56.0581 179.932 59.2585 174.001 62.4111 169.949C72.0521 157.554 79.7744 159.194 80.6422 173.755Z" fill="#FFC727"/>
<path d="M47.4679 203.64C49.8562 202.908 67.0603 201.769 79.2568 202.581C79.2948 202.581 79.3312 202.596 79.3581 202.623C79.385 202.65 79.4001 202.686 79.4001 202.724C79.4001 202.762 79.385 202.799 79.3581 202.826C79.3312 202.853 79.2948 202.868 79.2568 202.868C77.9113 202.947 50.0154 204.46 47.4679 204.03C47.2211 204.022 47.2609 203.728 47.4679 203.64Z" fill="#263238"/>
<path d="M82.3069 189.494C82.3069 189.468 82.2968 189.444 82.2789 189.426C82.261 189.408 82.2367 189.398 82.2113 189.398C82.186 189.398 82.1617 189.408 82.1438 189.426C82.1259 189.444 82.1158 189.468 82.1158 189.494C81.775 190.761 81.5092 192.048 81.3197 193.347C81.2639 193.641 81.2241 193.944 81.1684 194.238C81.0649 191.054 80.9137 187.957 80.7465 184.836C80.7465 184.693 80.5076 184.693 80.5156 184.836C80.6111 195.655 80.3245 205.535 79.6638 211.793L76.4315 212.063C76.3865 212.073 76.3461 212.097 76.317 212.132C76.288 212.168 76.2721 212.213 76.2721 212.258C76.2721 212.304 76.288 212.349 76.317 212.384C76.3461 212.42 76.3865 212.444 76.4315 212.454L80.5395 212.597C80.7146 212.597 81.3993 203.585 81.2321 196.483C81.455 195.456 81.6938 194.437 81.861 193.402C82.1093 192.113 82.2583 190.806 82.3069 189.494Z" fill="#263238"/>
<path d="M47.7076 212.278C46.0278 212.381 44.348 212.469 42.6762 212.517H42.3418L42.4453 212.19C43.0981 210.136 43.7668 208.09 44.4993 206.068C45.2317 204.046 45.9721 202.016 46.7682 200.018C47.5643 198.02 48.3604 196.037 49.2919 194.063C50.2233 192.088 51.115 190.154 52.1579 188.267L49.7696 194.286L47.4767 200.304L45.1839 206.331L42.8991 212.397L42.6762 212.079C44.348 212.087 46.0278 212.174 47.7076 212.278Z" fill="#263238"/>
<path d="M98.3106 175.393C92.6422 177.264 81.9424 169.295 77.3966 162.48C77.0861 162.01 77.3966 142.203 77.0782 138.278C77.0065 137.482 102.291 142.115 102.291 142.115C102.291 142.115 100.58 150.57 101.216 157.417C101.28 157.99 103.788 173.586 98.3106 175.393Z" fill="#D26E58"/>
<path d="M102.299 142.108C102.299 142.227 102.18 142.721 102.052 143.517C101.829 144.87 101.495 147.059 101.296 149.543C101.05 152.153 101.032 154.78 101.24 157.393C101.248 157.575 101.27 157.756 101.304 157.934V158.022C101.36 158.34 101.408 158.77 101.463 159.28C100.677 159.456 99.8787 159.57 99.0749 159.622C85.6126 160.482 79.6576 144.392 77.8584 138.167L78.2883 138.207C78.9491 138.254 79.8248 138.358 80.8757 138.493L81.6718 138.605C83.3516 138.844 85.3578 139.162 87.4436 139.496C88.1283 139.608 88.813 139.711 89.5135 139.839C91.0102 140.101 92.5229 140.356 93.924 140.587C94.5291 140.706 95.1262 140.81 95.6834 140.906C96.2407 141.001 96.9174 141.12 97.4827 141.216L98.2788 141.359L98.6689 141.439L100.763 141.813L101.766 141.988C101.908 142.012 102.049 142.044 102.188 142.084C102.228 142.084 102.243 142.084 102.259 142.084L102.299 142.108Z" fill="#263238"/>
<path d="M72.2384 109.419C69.8501 118.28 75.3115 143.461 81.7361 148.906C91.0666 156.796 105.914 157.09 112.53 145.993C118.899 135.237 111.232 102.533 104.091 97.6285C93.5664 90.4077 75.7732 96.3308 72.2384 109.419Z" fill="#D26E58"/>
<path d="M71.5702 99.8585C69.1361 100.197 66.9361 101.175 65.3845 102.61C63.8329 104.044 63.0365 105.836 63.1454 107.648C63.2994 109.715 64.5871 111.764 65.985 113.515C67.5556 115.372 69.4488 117.067 71.6179 118.559C71.7324 118.644 71.9032 118.491 71.7807 118.407C69.8635 116.985 68.262 115.349 67.0327 113.558C65.7253 111.893 64.7935 110.08 64.2729 108.187C63.9085 106.421 64.4629 104.605 65.8262 103.1C67.1894 101.595 69.2619 100.511 71.6327 100.062C71.6654 100.053 71.6926 100.035 71.7093 100.012C71.726 99.9894 71.731 99.9632 71.7233 99.9383C71.7157 99.9134 71.696 99.8915 71.6678 99.8769C71.6396 99.8622 71.6049 99.8556 71.5702 99.8585Z" fill="#263238"/>
<path d="M87.4439 89.89C84.3122 91.2102 81.3679 92.9367 78.6866 95.025C76.042 96.8869 73.7369 99.1893 71.8718 101.832C71.7843 101.967 71.9594 102.126 72.0709 101.999C76.2505 97.5168 81.6959 94.1254 87.1971 91.4504C92.3161 88.9427 98.7089 87.8042 103.613 91.4504C103.62 91.4605 103.629 91.4688 103.64 91.4747C103.651 91.4805 103.663 91.4838 103.676 91.4841C103.688 91.4845 103.7 91.482 103.711 91.4768C103.723 91.4716 103.733 91.4639 103.74 91.4543C103.748 91.4446 103.753 91.4333 103.756 91.4213C103.758 91.4092 103.758 91.3967 103.755 91.3847C103.752 91.3728 103.746 91.3617 103.738 91.3524C103.73 91.343 103.72 91.3357 103.709 91.331C99.1866 87.4141 92.6744 87.7724 87.4439 89.89Z" fill="#263238"/>
<path d="M78.6386 130.046C78.6386 130.046 72.7792 121.934 69.0852 124.036C65.3913 126.137 69.8813 137.952 74.2759 139.512C74.8259 139.751 75.4184 139.876 76.018 139.88C76.6176 139.885 77.2118 139.767 77.765 139.536C78.3182 139.305 78.8189 138.964 79.2372 138.535C79.6555 138.105 79.9826 137.595 80.199 137.036L78.6386 130.046Z" fill="#D26E58"/>
<path d="M70.4542 127.387C70.3826 127.387 70.3746 127.483 70.4542 127.507C73.5352 128.701 75.1911 131.487 76.3614 134.441C75.4379 133.326 74.188 132.721 72.6833 133.828C72.6037 133.884 72.6833 134.011 72.763 133.987C73.2992 133.808 73.8779 133.798 74.4196 133.961C74.9613 134.123 75.4394 134.45 75.7882 134.895C76.3628 135.638 76.859 136.438 77.269 137.283C77.4123 137.554 77.9059 137.403 77.8024 137.084C77.8009 137.063 77.8009 137.042 77.8024 137.02C77.7785 133.135 74.6577 127.722 70.4542 127.387Z" fill="#263238"/>
<path d="M98.4941 123.876C98.4941 123.821 98.3827 123.98 98.3906 124.052C98.7489 125.723 98.8683 127.706 97.4432 128.534C97.4347 128.537 97.4275 128.544 97.4224 128.551C97.4173 128.559 97.4146 128.568 97.4146 128.578C97.4146 128.587 97.4173 128.596 97.4224 128.604C97.4275 128.611 97.4347 128.618 97.4432 128.621C99.2823 128.016 99.0992 125.413 98.4941 123.876Z" fill="#263238"/>
<path d="M96.679 122.388C93.9404 122.666 94.6887 128.136 97.2284 127.881C99.768 127.626 98.9798 122.157 96.679 122.388Z" fill="#263238"/>
<path d="M108.135 121.902C108.135 121.838 108.279 121.966 108.287 122.037C108.47 123.733 108.963 125.652 110.572 126.018C110.619 126.018 110.627 126.113 110.572 126.113C108.661 126.097 108.032 123.542 108.135 121.902Z" fill="#263238"/>
<path d="M109.408 119.927C112.107 119.346 113.07 124.784 110.57 125.317C108.071 125.851 107.147 120.413 109.408 119.927Z" fill="#263238"/>
<path d="M94.1157 120.851C94.8054 120.54 95.4778 120.192 96.1299 119.809C96.8923 119.545 97.5451 119.036 97.9848 118.36C98.0811 118.122 98.0967 117.859 98.0291 117.612C97.9614 117.364 97.8145 117.146 97.6107 116.99C97.156 116.745 96.6441 116.625 96.1278 116.643C95.6114 116.661 95.1092 116.817 94.673 117.094C93.7066 117.515 92.9318 118.282 92.4996 119.243C92.4147 119.469 92.3967 119.714 92.4478 119.949C92.4989 120.185 92.6169 120.4 92.7876 120.57C92.9583 120.74 93.1745 120.857 93.4101 120.907C93.6457 120.957 93.8908 120.937 94.1157 120.851Z" fill="#263238"/>
<path d="M110.731 116.934C109.975 116.884 109.223 116.794 108.478 116.663C107.672 116.68 106.883 116.431 106.233 115.955C106.057 115.766 105.95 115.525 105.927 115.268C105.904 115.012 105.966 114.755 106.105 114.538C106.443 114.149 106.879 113.857 107.368 113.694C107.856 113.53 108.379 113.5 108.884 113.606C109.94 113.658 110.938 114.107 111.678 114.864C111.839 115.044 111.944 115.267 111.98 115.506C112.017 115.745 111.982 115.989 111.882 116.209C111.781 116.429 111.619 116.614 111.414 116.743C111.21 116.872 110.972 116.938 110.731 116.934Z" fill="#263238"/>
<path d="M98.8121 138.947C99.2738 139.29 99.7515 139.743 100.404 139.743C101.032 139.646 101.632 139.415 102.164 139.067C102.219 139.067 102.283 139.067 102.251 139.146C102.054 139.512 101.763 139.818 101.407 140.032C101.051 140.246 100.644 140.361 100.229 140.364C99.871 140.321 99.5339 140.172 99.2604 139.937C98.9869 139.701 98.7893 139.39 98.6927 139.043C98.621 138.947 98.7245 138.899 98.8121 138.947Z" fill="#263238"/>
<path d="M99.8943 133.629C100.416 134.24 101.059 134.736 101.783 135.087C102.506 135.438 103.294 135.635 104.098 135.667C104.799 135.702 105.501 135.638 106.184 135.476C106.316 135.453 106.446 135.421 106.574 135.38L106.94 135.269C107.027 135.239 107.102 135.182 107.154 135.106C107.206 135.03 107.231 134.939 107.227 134.847L107.187 134.671V134.52C107.035 133.215 106.637 131.248 106.637 131.248C107.147 131.423 109.726 132.18 109.599 131.503C108.484 125.93 107.25 119.689 104.966 114.355C104.954 114.313 104.926 114.279 104.889 114.258C104.852 114.237 104.808 114.232 104.767 114.243C104.725 114.255 104.69 114.282 104.67 114.32C104.649 114.357 104.643 114.401 104.655 114.442C105.515 119.864 107.314 125.094 108.261 130.524C107.344 130.236 106.389 130.083 105.427 130.07C105.252 130.15 106.263 133.859 106.287 134.449C106.289 134.47 106.289 134.491 106.287 134.512C104.138 135.093 102.394 134.656 100.061 133.477C99.8943 133.374 99.7749 133.509 99.8943 133.629Z" fill="#263238"/>
<path d="M105.325 134.918C104.738 135.947 103.897 136.808 102.881 137.418C102.317 137.734 101.668 137.865 101.026 137.792C99.6245 137.625 99.4335 136.391 99.521 135.292C99.5804 134.708 99.7086 134.134 99.9032 133.58C101.521 134.593 103.421 135.062 105.325 134.918Z" fill="#263238"/>
<path d="M102.881 137.418C102.317 137.735 101.668 137.866 101.026 137.792C99.6245 137.625 99.4335 136.391 99.521 135.293C100.994 135.245 102.562 136.025 102.881 137.418Z" fill="#FF9ABB"/>
<path opacity="0.2" d="M76.4174 118.286C75.804 120.952 74.6346 127.187 73.5147 127.793C71.0964 119.77 69.8796 112.33 71.2466 107.432C71.798 105.401 72.7277 103.486 73.9883 101.785C74.5051 103.966 77.0886 115.576 76.4174 118.286Z" fill="#263238"/>
<path d="M98.1905 103.8C97.7202 105.214 96.8918 106.488 95.784 107.502C94.6762 108.516 93.3257 109.236 91.8609 109.594C90.3675 109.958 88.8073 109.941 87.3277 109.545C85.8481 109.15 84.4979 108.388 83.4048 107.332C83.4048 107.332 83.2336 107.358 83.2978 107.348C84.3398 108.563 85.7003 109.472 87.2329 109.978C88.7654 110.484 90.4119 110.567 91.995 110.219C93.533 109.793 94.9333 108.978 96.0556 107.853C97.1778 106.729 97.9825 105.336 98.3892 103.814C98.4443 103.741 98.2365 103.664 98.1905 103.8Z" fill="#263238"/>
<path d="M81.4893 87.437C79.335 88.3316 77.4386 89.7421 75.9733 91.5398C74.5079 93.3375 73.5202 95.4651 73.1004 97.7284C72.89 99.9217 73.4383 102.115 74.6562 103.953C74.6562 103.953 74.8487 103.924 74.8273 103.928C73.9807 102.196 73.6287 100.266 73.8089 98.3455C73.9891 96.4248 74.6948 94.5846 75.8505 93.0212C77.0792 91.2531 78.7056 89.7873 80.6017 88.7392C82.4978 87.6911 84.6117 87.0893 86.7772 86.9812C88.8707 86.8344 90.9444 87.4205 92.6325 88.6359C92.7853 88.7855 93.1032 88.5666 92.9444 88.3749C90.4546 85.9665 85.7448 85.5843 81.4893 87.437Z" fill="#263238"/>
<path d="M113.203 86.2743C111.473 84.2958 109.086 82.9867 106.462 82.5772C102.816 81.9955 99.6368 83.5822 96.5154 85.2679C96.5154 85.2679 96.5398 85.4364 96.5337 85.3943C99.0867 83.7848 102.054 82.937 105.075 82.9537C107.627 83.134 110.029 84.1881 111.864 85.9336C113.693 87.741 114.795 90.1421 114.968 92.6966C115.141 95.2512 114.373 97.788 112.805 99.842C111.867 100.998 110.701 101.956 109.379 102.658C108.057 103.359 106.605 103.789 105.113 103.922C104.985 103.94 104.988 104.112 105.141 104.111C107.187 104.003 109.168 103.337 110.861 102.187C112.553 101.038 113.892 99.4499 114.728 97.6006C115.564 95.7512 115.864 93.7131 115.595 91.7133C115.326 89.7134 114.498 87.8305 113.203 86.2743Z" fill="#263238"/>
<path d="M71.4605 118.126C71.4605 118.126 63.5262 111.614 65.2317 105.275C66.2421 101.685 73.4841 99.1773 73.4841 99.1773C73.852 97.4265 74.5688 95.7628 75.5926 94.2827C76.6165 92.8025 77.9271 91.5355 79.4484 90.5551C84.8296 86.8158 93.2803 87.3785 93.2803 87.3785C94.5779 85.8119 96.2372 84.5738 98.1178 83.769C99.9984 82.9641 102.045 82.6162 104.084 82.7548C113.146 83.9159 116.823 95.2918 110.777 101.839C106.609 106.411 97.6944 104.755 97.6944 104.755C97.0463 105.109 91.8041 112.076 84.0366 108.078C84.0366 108.078 81.2831 113.517 76.3872 112.453C76.2422 113.775 75.6935 115.025 74.8138 116.038C73.934 117.051 72.7647 117.779 71.4605 118.126Z" fill="#263238"/>
<path d="M51.2715 46.6254C56.1062 46.5096 60.8779 47.7397 65.0541 50.1784C69.2304 52.617 72.6467 56.1683 74.9219 60.4358C77.1971 64.7032 78.2415 69.519 77.9387 74.3456C77.6359 79.1722 75.9977 83.8197 73.207 87.7694L76.7775 100.465L64.7456 95.4609C61.2928 97.4001 57.444 98.528 53.4908 98.7592C49.5375 98.9904 45.5835 98.3188 41.9282 96.7952C38.273 95.2716 35.0125 92.9361 32.3938 89.9656C29.7751 86.9951 27.8668 83.4675 26.8135 79.6501C25.7603 75.8327 25.5897 71.8257 26.3147 67.9326C27.0397 64.0395 28.6413 60.3625 30.9982 57.1801C33.355 53.9978 36.4052 51.3936 39.9177 49.565C43.4302 47.7363 47.3128 46.731 51.2715 46.6254Z" fill="white"/>
<path d="M51.2714 46.6255C56.1222 46.4996 60.9127 47.7228 65.1094 50.1589C66.152 50.7759 67.1542 51.4589 68.1097 52.2037C69.0497 52.9587 69.9418 53.7714 70.7808 54.6372C72.47 56.3578 73.9089 58.3075 75.055 60.4289C76.2146 62.5517 77.0766 64.824 77.617 67.1817C77.8777 68.3662 78.0547 69.5676 78.1466 70.777C78.2705 71.9818 78.2992 73.1945 78.2327 74.4039C77.9628 79.2937 76.3343 84.0112 73.5304 88.0263L73.5863 87.7075L77.2304 100.381L77.4957 101.305L76.6087 100.935L64.5662 95.9307L65.0103 95.9202C61.4971 97.9067 57.5758 99.0626 53.5469 99.2994C49.5179 99.5362 45.4882 98.8477 41.7665 97.2865C38.0501 95.7161 34.7378 93.3241 32.0784 90.2901C29.4589 87.2554 27.5594 83.6677 26.5222 79.7953C25.4849 75.9229 25.3366 71.8661 26.0884 67.9284C26.8745 64.0226 28.5261 60.3428 30.9219 57.1595C33.2996 53.9825 36.3653 51.3845 39.8894 49.5603C43.4135 47.736 47.3046 46.7327 51.2714 46.6255ZM51.2714 46.6255C47.3195 46.7122 43.4404 47.7056 39.9332 49.5289C36.426 51.3522 33.3845 53.9567 31.0433 57.1416C28.7021 60.3265 27.1237 64.0067 26.43 67.8981C25.7363 71.7896 25.9457 75.7884 27.0421 79.5862C28.1077 83.3493 30.0214 86.8183 32.6363 89.7267C35.2665 92.6023 38.4898 94.8723 42.0835 96.3796C45.6831 97.8472 49.569 98.4786 53.448 98.226C57.3243 97.9777 61.0966 96.869 64.4907 94.9803L64.71 94.8588L64.9449 94.9484L76.9905 100.08L76.3583 100.634L72.8821 87.9041L72.8252 87.7362L72.9381 87.5854C75.7252 83.7092 77.382 79.1356 77.7241 74.3737C77.8123 73.1867 77.8052 71.9945 77.703 70.8087C77.6322 69.6178 77.4768 68.4336 77.2381 67.2648C76.7525 64.9247 75.9402 62.6646 74.8252 60.5508C73.7218 58.4145 72.306 56.4547 70.6244 54.7362C69.7972 53.8733 68.9194 53.0603 67.9957 52.3016C67.0454 51.5595 66.0504 50.8765 65.0165 50.2563C60.8585 47.7987 56.1006 46.5419 51.2714 46.6255Z" fill="#263238"/>
<path d="M57.0002 66H59.2529L61.9465 70.8662H62.054L64.7476 66H67.0002L62.9949 72.8965V77H61.0056V72.8965L57.0002 66Z" fill="#263238"/>
<path d="M48.0834 77H46.0002L49.793 66H52.2022L56.0002 77H53.9171L51.0397 68.2559H50.9555L48.0834 77ZM48.1517 72.687H53.833V74.2876H48.1517V72.687Z" fill="#263238"/>
<path d="M38.0002 77V66H42.1237C42.9685 66 43.6772 66.1576 44.2499 66.4727C44.8262 66.7878 45.2611 67.221 45.5546 67.7725C45.8517 68.3203 46.0002 68.9434 46.0002 69.6416C46.0002 70.347 45.8517 70.9736 45.5546 71.5215C45.2575 72.0693 44.819 72.5008 44.2392 72.8159C43.6593 73.1274 42.9452 73.2832 42.0969 73.2832H39.364V71.645H41.8284C42.3224 71.645 42.7269 71.5591 43.0419 71.3872C43.3568 71.2153 43.5895 70.979 43.7398 70.6782C43.8938 70.3774 43.9707 70.0319 43.9707 69.6416C43.9707 69.2513 43.8938 68.9076 43.7398 68.6104C43.5895 68.3132 43.3551 68.0822 43.0365 67.9175C42.7215 67.7492 42.3152 67.665 41.8177 67.665H39.9922V77H38.0002Z" fill="#263238"/>
</g>
<defs>
<filter id="filter0_d_1_2020" x="-8" y="-3" width="335" height="335" filterUnits="userSpaceOnUse" color-interpolation-filters="sRGB">
<feFlood flood-opacity="0" result="BackgroundImageFix"/>
<feColorMatrix in="SourceAlpha" type="matrix" values="0 0 0 0 0 0 0 0 0 0 0 0 0 0 0 0 0 0 127 0" result="hardAlpha"/>
<feOffset dy="4"/>
<feGaussianBlur stdDeviation="2"/>
<feComposite in2="hardAlpha" operator="out"/>
<feColorMatrix type="matrix" values="0 0 0 0 0 0 0 0 0 0 0 0 0 0 0 0 0 0 0.25 0"/>
<feBlend mode="normal" in2="BackgroundImageFix" result="effect1_dropShadow_1_2020"/>
<feBlend mode="normal" in="SourceGraphic" in2="effect1_dropShadow_1_2020" result="shape"/>
</filter>
<clipPath id="clip0_1_2020">
<rect width="327" height="327" fill="white" transform="translate(-4 -3)"/>
</clipPath>
</defs>
</svg>
